<svg width="2500" height="784" viewBox="0 0 2500 784" fill="none" xmlns="http://www.w3.org/2000/svg">
<g clip-path="url(#clip0_741_78)">
<path d="M1355.61 373.194C1513.52 301.569 1536.87 67.8362 1312.25 67.8362H1052.13L955.998 256.33H1001.24L886.254 706.83H1187.84C1407.87 708.71 1506.82 449.624 1355.61 373.194V373.194ZM1187.84 542.841H1112.45L1140.72 441.057H1212.34C1297.17 458.017 1244.4 546.608 1187.84 542.841V542.841ZM1233.08 326.069H1169L1187.84 237.478H1259.47C1328.68 254.444 1268.9 329.842 1233.08 326.069Z" fill="#005FAF" stroke="#005FAF" stroke-width="5.40485"/>
<path d="M1973.1 308.568L2071.86 134.24L1938.23 64.5393L1920.8 86.0506C1848.72 47.8924 1471.25 100.579 1447.61 472.935C1461.74 785.297 1811.75 729.108 1846.08 709.289L1942.35 510.288C1848.07 572.39 1655.02 602.203 1646.85 415.654C1663.78 261.822 1845.41 204.374 1973.1 308.568V308.568ZM2465.89 67.8363H2162.3L2065.8 250.688H2115.38L1886.59 706.83H2108.04L2153.51 596.809H2289.44L2292.83 706.83H2496.69L2465.89 67.8363V67.8363ZM2215.09 448.678L2289.44 271.221L2292.83 448.678H2215.09Z" fill="#005FAF" stroke="#005FAF" stroke-width="5.40485"/>
<path d="M570.049 676.325L581.842 672.903L568.908 655.03L570.049 676.325ZM376.436 673.282L374.155 689.258C380.025 688.686 387.251 693.745 390.132 682.411C389.916 673.579 383.192 673.093 376.436 673.282V673.282ZM470.394 672.903C469.416 668.552 465.784 665.347 456.698 668.342L459.741 684.691C467.205 683.037 471.043 678.622 470.394 672.903ZM258.14 659.521L254.508 674.049C260.346 674.292 267.183 679.027 271.058 670.417C271.317 665.023 271.539 659.651 258.14 659.521ZM462.406 696.868L465.07 713.607C471.302 713.764 476.988 710.018 475.34 702.198C473.751 694.674 467.432 695.863 462.406 696.868V696.868Z" fill="#005FAF"/>
<path d="M709.775 76.4516C508.352 -26.1595 267.799 -23.3057 75.8835 71.9763C-23.0792 246.191 -26.2302 489.944 75.8835 705.835C287.316 812.829 521.162 805.782 711.261 710.31C800.603 527.016 815.358 306.455 709.775 76.4516V76.4516ZM369.594 596.657L357.654 596.792C354.698 563.801 346.812 536.074 329.895 514.855C252.319 417.573 93.7412 490.814 134.488 325.485C155.675 240.964 397.342 191.115 369.594 596.657V596.657ZM134.775 433.366C151.714 467.844 257.838 473.492 294.677 499.883C353.114 541.744 344.726 596.809 344.726 596.809H330.944C303.811 513.644 227.662 579.491 166.669 557.094C128.375 543.474 100.573 484.436 134.775 433.366V433.366ZM328.128 704.479L333.835 659.213L344.104 659.975L339.537 709.802C334.932 731.751 302.206 728.817 298.077 707.9L303.401 656.17L315.572 658.078L310.248 701.436C310.924 715.785 325.317 714.926 328.128 704.479ZM273.479 716.839L261.772 714.013C263.145 704.338 274.62 684.654 251.941 684.654L245.628 710.381L232.711 707.959L246.433 646.198C279.976 649.852 282.911 659.186 283.576 669.207C282.251 676.979 280.181 682.405 273.485 683.735C281.322 690.848 273.577 705.754 273.479 716.839V716.839ZM199.125 647.663C195.898 651.943 189.439 666.899 188.504 678.816C187.51 691.447 199.644 688.788 202.665 687.313C205.103 686.129 206.913 675.984 206.913 675.984L198.417 673.152L201.249 664.661L220.371 671.033L211.167 702.9L203.378 700.771L204.087 695.815C194.552 700.16 177.1 696.901 175.052 685.902C173.003 677.065 179.208 650.273 189.212 637.756C198.936 625.584 222.625 637.48 223.203 644.836C223.776 652.165 220.885 660.413 220.885 660.413L211.967 658.732C211.967 658.732 212.513 656.084 213.291 651.911C214.112 647.49 202.584 643.063 199.125 647.663V647.663ZM373.015 699.528L370.734 726.919L361.227 726.541L364.648 661.494C388.392 661.986 402.001 665.272 401.547 682.038C400.131 704.943 381.582 699.792 373.015 699.528ZM396.683 596.803H380.776C379.366 540.474 390.197 437.441 360.6 361.617C338.175 304.136 281.424 278.279 268.847 231.846C248.936 158.351 282.824 78.8297 396.683 72.706C495.392 82.8401 525.718 159.043 508.882 229.992C479.934 300.931 450.98 290.738 414.935 361.401C385.495 437.149 396.704 536.388 396.683 596.803V596.803ZM573.092 701.052L562.06 704.857L558.634 639.431L571.567 636.01L603.521 690.021L594.77 695.728L584.118 680.519L571.946 685.081L573.092 701.052V701.052ZM444.397 596.803H431.674C442.159 452.137 623.951 483.566 640.566 433.366C669.298 483.134 658.969 525.097 628.967 546.608C554.412 600.084 482.923 507.034 444.397 596.803ZM511.855 669.866L517.562 699.917C521.113 706.84 523.524 705.559 528.972 704.862C535.29 700.29 533.971 695.836 532.777 690.026L543.808 688.507C546.684 710.278 536.333 712.499 528.594 713.991C511.995 715.18 508.742 711.948 504.25 690.41C501.634 671.974 497.116 652.506 512.617 648.949C538.063 645.063 536.56 656.516 538.863 664.542L527.831 666.45C526.069 659.553 523.535 656.819 517.941 657.327C512.844 659.667 510.752 663.456 511.855 669.866V669.866ZM488.652 701.052C489.181 710.527 485.966 716.818 479.901 718.931L454.034 724.255L443.764 661.494C449.072 660.629 475.096 651.095 481.42 668.347C484.539 678.881 481.307 682.659 477.615 687.361C484.614 689.61 486.976 695.058 488.652 701.052ZM422.226 386.095C479.853 223.842 611.715 252.514 640.96 325.491C681.026 471.924 552.013 431.766 469.373 491.814C438.138 518.979 421.702 550.143 421.459 597.387H407.298C406.449 502.229 404.909 434.847 422.226 386.095Z" fill="#005FAF"/>
</g>
<defs>
<clipPath id="clip0_741_78">
<rect width="2500" height="784" fill="white"/>
</clipPath>
</defs>
</svg>
