<svg width="2500" height="784" viewBox="0 0 2500 784" fill="none" xmlns="http://www.w3.org/2000/svg">
<g clip-path="url(#clip0_759_97)">
<path fill-rule="evenodd" clip-rule="evenodd" d="M0.15625 741.895H688.008V-0.253906H0.15625V741.895Z" fill="white"/>
<path fill-rule="evenodd" clip-rule="evenodd" d="M275.729 500.603L348.659 436.773C336.563 420.262 325.026 403.243 314.023 386.041C229.349 253.742 179.466 118.876 215.612 -0.253906H0.15625V128.394L275.729 500.603Z" fill="#E94D11"/>
<path fill-rule="evenodd" clip-rule="evenodd" d="M391.016 308.21C395.547 266.263 407.214 186.965 478.437 128.196C540.117 77.2956 617.135 67.5525 685.482 98.9389V-0.253906H305.182C280.065 120.582 346.094 253.262 391.016 308.21Z" fill="#E94D11"/>
<path fill-rule="evenodd" clip-rule="evenodd" d="M483.164 187.232L482.904 187.457C411.367 250.357 428.984 349.113 495.469 437.759C546.875 506.298 615.534 554.28 685.482 517.903V225.922C622.656 156.282 547.239 130.86 483.164 187.232Z" fill="#E94D11"/>
<path fill-rule="evenodd" clip-rule="evenodd" d="M0.15625 280.659V741.881H0.208333L207.578 560.288L0.15625 280.659Z" fill="#E94D11"/>
<path fill-rule="evenodd" clip-rule="evenodd" d="M377.214 473.461C356.992 491.608 331.758 513.928 303.737 538.447L330.638 574.769C369.7 627.545 426.589 718.771 497.24 694.096L499.844 697.565L449.687 741.881H685.482V566.267C564.154 637.725 459.935 572.696 377.214 473.461Z" fill="#E94D11"/>
<path fill-rule="evenodd" clip-rule="evenodd" d="M263.424 635.61L235.547 598.02C178.451 647.708 118.151 699.863 69.4141 741.881H333.307C316.146 702.429 284.987 664.698 263.424 635.61Z" fill="#E94D11"/>
<path fill-rule="evenodd" clip-rule="evenodd" d="M1256.48 309.845C1319.57 297.875 1360.59 238.74 1360.59 163.22C1360.59 62.9419 1280.4 -0.253906 1142.97 -0.253906H871.094V3.11597C926.615 36.138 925.365 89.351 925.365 140.068V600.275C925.365 652.092 926.615 705.869 871.094 738.285V741.655H1002.01C1129.95 741.655 1227.89 744.01 1301.22 706.73C1378.98 667.165 1426.22 596.214 1426.22 509.415C1426.22 398.9 1350.17 331.263 1256.48 309.845ZM1032.01 68.1165L1117.98 69.7098C1181.78 69.7098 1247.07 103.493 1247.07 181.325C1247.07 273.764 1189.39 298.565 1107.07 298.565L1032.01 298.735V68.1165ZM1114.92 665.318L1032.01 665.459V368.797L1121.09 368.43C1224.92 368.43 1310.6 410.208 1310.6 519.553C1310.6 626.727 1220.66 665.318 1114.92 665.318Z" fill="#006383"/>
<path fill-rule="evenodd" clip-rule="evenodd" d="M1634.57 600.416C1634.57 663.598 1633.52 708.718 1688.7 743.643V747.027H1504.4V743.643C1559.64 708.718 1558.67 663.598 1558.67 600.416V149.586C1558.67 86.4464 1559.64 36.9417 1504.49 3.11597V-0.253906H1657.49V0.888187C1661.64 14.4241 1668.29 21.8406 1673.12 29.0598C1677.9 36.2649 1687.67 51.6056 1687.67 51.6056L2038.53 563.799V145.215C2038.53 82.0755 2039.6 36.9417 1984.36 3.11597V-0.253906H2167.66V3.11597C2113.5 36.9417 2113.5 82.0755 2113.5 145.215V783.8C2080.16 769.432 1986.74 685.382 1920.31 588.615C1801.2 415.059 1634.57 174.035 1634.57 174.035V600.416Z" fill="#006383"/>
<path fill-rule="evenodd" clip-rule="evenodd" d="M2338.46 134.175C2338.46 82.3293 2337.76 36.1803 2284.53 3.11597V-0.253906H2500.13V3.11597C2446.77 35.2074 2446.29 83.4432 2446.29 134.175V608.524C2446.29 659.171 2445.07 710.325 2500.13 743.516V746.872H2284.53V743.516C2339.93 709.987 2338.46 659.565 2338.46 608.862V134.175Z" fill="#006383"/>
</g>
<defs>
<clipPath id="clip0_759_97">
<rect width="2500" height="784" fill="white"/>
</clipPath>
</defs>
</svg>
