<svg width="2500" height="784" viewBox="0 0 2500 784" fill="none" xmlns="http://www.w3.org/2000/svg">
<g clip-path="url(#clip0_759_88)">
<path fill-rule="evenodd" clip-rule="evenodd" d="M87.7959 -0.45459H476.197C524.315 -0.45459 563.683 36.917 563.683 82.5892V458.75C563.683 504.422 524.315 541.794 476.197 541.794H87.7959C39.6786 541.794 0.309875 504.422 0.309875 458.75V82.5892C0.309875 36.917 39.6786 -0.45459 87.7959 -0.45459ZM97.1824 38.1109H166.078C184.978 46.3736 200.27 59.3362 210.787 74.137C223.399 91.8942 228.903 111.736 225.058 128.28C224.948 128.754 224.73 129.55 224.402 130.63C214.888 163.018 182.481 192.79 149.492 223.055C139.978 231.81 130.409 240.585 120.968 249.814L101.484 268.822L121.186 287.545L121.205 287.564L121.259 287.527C130.609 296.642 140.069 305.341 149.492 313.982C182.481 344.266 214.888 374.038 224.402 406.407C224.73 407.506 224.948 408.283 225.058 408.776C228.903 425.32 223.399 445.143 210.787 462.919C198.21 480.619 178.818 495.667 154.595 503.209H97.1824C77.9902 503.209 62.2791 486.816 62.2791 466.785V74.5539C62.2791 54.5226 77.9902 38.1299 97.1824 38.1299V38.1109ZM253.199 38.1109H322.696C341.578 46.3736 356.87 59.3362 367.387 74.137C380.017 91.8942 385.522 111.736 381.658 128.28C381.548 128.754 381.33 129.55 381.02 130.63C371.506 163.018 339.081 192.79 306.11 223.055C296.578 231.81 287.009 240.585 277.568 249.814L258.539 268.367L277.458 287.129L487.734 495.875C481.902 500.48 474.648 503.209 466.811 503.209H249.7C252.506 499.874 255.168 496.463 257.646 492.976C278.661 463.412 287.355 428.39 280.101 397.197C279.627 395.188 279.19 393.482 278.789 392.118C265.101 345.517 227.19 310.704 188.623 275.303C186.163 273.048 183.702 270.793 181.26 268.519C183.702 266.263 186.163 264.008 188.623 261.753C227.19 226.352 265.101 191.539 278.789 144.938C279.19 143.555 279.627 141.849 280.101 139.841C287.355 108.666 278.661 73.6443 257.646 44.0616C256.225 42.0528 254.73 40.0818 253.199 38.1109ZM409.799 38.1109H466.811C486.003 38.1109 501.714 54.5226 501.714 74.5539V432.161L337.35 268.992C339.974 266.586 342.599 264.16 345.223 261.753C383.79 226.352 421.701 191.539 435.389 144.938C435.79 143.555 436.227 141.849 436.701 139.841C443.973 108.666 435.261 73.6443 414.246 44.0616C412.825 42.0528 411.33 40.0818 409.799 38.1109Z" fill="#005093"/>
<path fill-rule="evenodd" clip-rule="evenodd" d="M25.2616 745.215H37.6372V632.475H38.0017L84.989 745.215H95.5602L141.108 632.475H141.472V745.215H153.848V620.1H136.077L90.1835 730.168L44.4538 620.1H25.2616V745.215ZM244.76 730.869C243.375 731.741 241.68 732.575 239.639 733.39C237.616 734.185 235.41 734.906 233.023 735.569C230.617 736.194 228.266 736.725 225.841 737.085C223.454 737.483 221.212 737.691 219.116 737.691C214.177 737.654 209.857 736.725 206.084 734.944C202.348 733.143 199.176 730.661 196.643 727.477C194.128 724.274 192.214 720.579 190.938 716.352C189.644 712.145 188.988 707.597 188.988 702.727H251.577V697.003C251.577 690.806 250.884 684.988 249.499 679.549C248.132 674.11 245.981 669.297 243.047 665.128C240.131 660.939 236.358 657.661 231.765 655.292C227.154 652.904 221.631 651.672 215.179 651.653C209.365 651.672 204.116 652.885 199.395 655.197C194.675 657.528 190.61 660.826 187.22 665.09C183.812 669.354 181.224 674.414 179.401 680.232C177.578 686.069 176.649 692.493 176.612 699.505C176.576 706.403 177.341 712.752 178.854 718.57C180.385 724.369 182.773 729.41 186.054 733.712C189.353 738.014 193.617 741.368 198.94 743.756C204.225 746.106 210.659 747.338 218.223 747.375C221.048 747.375 224.019 747.167 227.099 746.769C230.179 746.371 233.223 745.803 236.23 745.101C239.256 744.343 242.099 743.434 244.76 742.353V730.869ZM188.988 693.062C188.988 689.233 189.608 685.462 190.847 681.729C192.068 678.033 193.854 674.622 196.187 671.552C198.52 668.463 201.327 666.018 204.644 664.161C207.962 662.304 211.698 661.356 215.89 661.337C220.1 661.356 223.691 662.247 226.643 664.047C229.596 665.81 232.02 668.198 233.879 671.211C235.738 674.205 237.087 677.616 237.944 681.369C238.782 685.14 239.201 689.025 239.201 693.062H188.988ZM273.084 745.215H284.384V610.776H273.084V745.215ZM365.436 745.215H376.554C376.263 743.13 376.044 741.084 375.935 739.094C375.807 737.085 375.716 735 375.698 732.878C375.661 730.755 375.661 728.462 375.661 726.036V685.709C375.698 677.787 374.586 671.306 372.362 666.284C370.139 661.262 366.658 657.566 361.937 655.178C357.18 652.809 351.056 651.616 343.565 651.653C341.524 651.653 339.318 651.824 336.93 652.146C334.561 652.487 332.137 652.942 329.731 653.511C327.271 654.098 324.919 654.761 322.678 655.5C320.436 656.259 318.431 657.054 316.663 657.926V668.861C320.873 666.208 325.211 664.256 329.731 663.062C334.197 661.906 338.808 661.3 343.565 661.337C348.614 661.337 352.678 662.19 355.722 663.953C358.766 665.696 360.989 668.311 362.356 671.779C363.741 675.285 364.397 679.606 364.361 684.818V689.461H362.21C358.237 689.442 354.118 689.537 349.835 689.707C345.533 689.916 341.287 690.333 337.113 690.958C332.884 691.621 328.911 692.645 325.175 694.009C321.456 695.393 318.121 697.269 315.259 699.619C312.362 701.969 310.083 704.944 308.443 708.526C306.766 712.107 305.928 716.466 305.909 721.545C305.873 723.232 306.092 725.203 306.529 727.42C306.985 729.618 307.823 731.892 309.008 734.185C310.229 736.516 311.942 738.677 314.184 740.648C316.426 742.657 319.36 744.267 322.915 745.48C326.487 746.712 330.861 747.338 336.037 747.375C338.862 747.375 341.742 747.015 344.64 746.257C347.502 745.537 350.29 744.476 352.915 743.036C355.539 741.633 357.909 739.871 360.023 737.786C362.119 735.645 363.796 733.276 365.09 730.528H365.436V745.215ZM364.361 704.698C364.397 706.744 364.306 709.132 364.088 711.899C363.887 714.723 363.34 717.584 362.484 720.579C361.609 723.554 360.205 726.34 358.292 728.898C356.36 731.494 353.699 733.598 350.29 735.209C346.9 736.82 342.581 737.616 337.277 737.691C333.796 737.71 330.588 737.18 327.726 736.081C324.883 735 322.586 733.238 320.91 730.812C319.196 728.405 318.303 725.165 318.285 721.204C318.303 717.186 319.178 713.87 320.855 711.179C322.55 708.526 324.828 706.384 327.726 704.773C330.624 703.163 333.941 701.931 337.605 701.116C341.287 700.32 345.151 699.77 349.179 699.505C353.225 699.24 357.18 699.126 361.135 699.145H364.361V704.698ZM402.381 653.795H390.005L422.448 746.295L420.133 754.349C418.967 758.329 417.727 761.797 416.415 764.792C415.085 767.748 413.426 770.06 411.403 771.709C409.398 773.395 406.828 774.229 403.639 774.248C401.597 774.248 399.957 774.097 398.663 773.812C397.387 773.528 396.257 773.206 395.2 772.827L394.124 782.492C396.038 782.947 398.007 783.307 400.103 783.553C402.162 783.818 404.258 783.932 406.318 783.932C409.489 783.894 412.296 783.193 414.757 781.791C417.199 780.388 419.386 778.474 421.227 776.105C423.086 773.717 424.726 771.026 426.112 768.07C427.515 765.076 428.736 762.006 429.811 758.841L466.392 653.795H454.563L428.208 729.978H428.025L402.381 653.795ZM534.704 745.215H545.822C545.53 743.13 545.311 741.084 545.202 739.094C545.074 737.085 544.983 735 544.965 732.878C544.928 730.755 544.928 728.462 544.928 726.036V685.709C544.965 677.787 543.853 671.306 541.648 666.284C539.406 661.262 535.925 657.566 531.204 655.178C526.465 652.809 520.341 651.616 512.832 651.653C510.809 651.653 508.585 651.824 506.198 652.146C503.828 652.487 501.422 652.942 498.998 653.511C496.538 654.098 494.187 654.761 491.945 655.5C489.703 656.259 487.698 657.054 485.93 657.926V668.861C490.159 666.208 494.478 664.256 498.998 663.062C503.482 661.906 508.075 661.3 512.832 661.337C517.881 661.337 521.945 662.19 524.989 663.953C528.051 665.696 530.256 668.311 531.642 671.779C533.008 675.285 533.665 679.606 533.628 684.818V689.461H531.477C527.504 689.442 523.385 689.537 519.12 689.707C514.8 689.916 510.554 690.333 506.38 690.958C502.17 691.621 498.196 692.645 494.46 694.009C490.724 695.393 487.406 697.269 484.527 699.619C481.629 701.969 479.369 704.944 477.71 708.526C476.051 712.107 475.213 716.466 475.177 721.545C475.14 723.232 475.359 725.203 475.796 727.42C476.252 729.618 477.09 731.892 478.293 734.185C479.514 736.516 481.209 738.677 483.451 740.648C485.693 742.657 488.628 744.267 492.182 745.48C495.772 746.712 500.128 747.338 505.305 747.375C508.148 747.375 511.009 747.015 513.907 746.257C516.787 745.537 519.558 744.476 522.182 743.036C524.807 741.633 527.176 739.871 529.309 737.786C531.386 735.645 533.063 733.276 534.357 730.528H534.704V745.215ZM533.628 704.698C533.665 706.744 533.574 709.132 533.373 711.899C533.154 714.723 532.626 717.584 531.751 720.579C530.894 723.554 529.473 726.34 527.577 728.898C525.627 731.494 522.966 733.598 519.558 735.209C516.186 736.82 511.848 737.616 506.562 737.691C503.063 737.71 499.873 737.18 496.993 736.081C494.15 735 491.854 733.238 490.177 730.812C488.482 728.405 487.57 725.165 487.552 721.204C487.57 717.186 488.445 713.87 490.122 711.179C491.817 708.526 494.095 706.384 496.993 704.773C499.891 703.163 503.209 701.931 506.89 701.116C510.554 700.32 514.418 699.77 518.446 699.505C522.492 699.24 526.465 699.126 530.402 699.145H533.628V704.698ZM571.83 745.215H583.131V694.672C583.131 691.583 583.386 688.494 583.969 685.348C584.534 682.222 585.464 679.227 586.703 676.347C587.997 673.485 589.674 670.927 591.77 668.672C593.848 666.416 596.418 664.635 599.48 663.327C602.523 662.02 606.078 661.356 610.197 661.337C615.373 661.356 619.547 662.531 622.755 664.843C625.944 667.155 628.277 670.434 629.753 674.66C631.212 678.886 631.922 683.889 631.904 689.65V745.215H643.204V686.789C643.204 681.729 642.658 677.067 641.491 672.822C640.361 668.558 638.538 664.843 636.078 661.679C633.599 658.514 630.373 656.069 626.4 654.307C622.426 652.582 617.633 651.672 612.001 651.653C607.28 651.672 603.234 652.241 599.899 653.378C596.545 654.477 593.738 655.955 591.497 657.775C589.218 659.594 587.396 661.603 585.938 663.744C584.498 665.905 583.331 668.027 582.402 670.112H582.055V653.795H571.12C571.466 657.471 571.685 661.091 571.739 664.673C571.83 668.255 571.849 671.817 571.83 675.304V745.215ZM671.528 745.215H682.828V653.795H671.528V745.215ZM682.828 614.358H671.528V629.424H682.828V614.358ZM773.741 630.864H791.858C798.911 630.826 805.491 631.698 811.579 633.422C817.703 635.185 823.079 638.047 827.727 641.988C832.356 645.949 836.002 651.18 838.608 657.68C841.233 664.218 842.581 672.253 842.6 681.767C842.581 691.318 841.196 699.486 838.444 706.176C835.692 712.884 831.755 718.323 826.615 722.512C821.475 726.662 815.297 729.713 808.116 731.627C800.916 733.541 792.878 734.489 783.966 734.47H773.741V630.864ZM761.365 745.215H783.255C791.566 745.215 799.367 744.495 806.621 743.036C813.893 741.576 820.491 739.302 826.415 736.194C832.32 733.086 837.405 729.088 841.652 724.16C845.917 719.233 849.216 713.32 851.512 706.403C853.791 699.505 854.939 691.527 854.975 682.487C855.012 673.315 853.845 664.919 851.512 657.301C849.179 649.701 845.498 643.125 840.522 637.573C835.491 632.02 829.039 627.718 821.093 624.705C813.146 621.692 803.577 620.138 792.386 620.1H761.365V745.215ZM942.115 730.869C940.748 731.741 939.053 732.575 937.012 733.39C934.988 734.185 932.765 734.906 930.377 735.569C927.99 736.194 925.638 736.725 923.214 737.085C920.808 737.483 918.585 737.691 916.489 737.691C911.55 737.654 907.212 736.725 903.457 734.944C899.721 733.143 896.549 730.661 894.016 727.477C891.501 724.274 889.587 720.579 888.293 716.352C887.017 712.145 886.361 707.597 886.361 702.727H948.95V697.003C948.95 690.806 948.257 684.988 946.872 679.549C945.505 674.11 943.354 669.297 940.42 665.128C937.504 660.939 933.731 657.661 929.12 655.292C924.527 652.904 918.986 651.672 912.534 651.653C906.738 651.672 901.489 652.885 896.75 655.197C892.029 657.528 887.965 660.826 884.593 665.09C881.185 669.354 878.578 674.414 876.756 680.232C874.951 686.069 874.022 692.493 873.985 699.505C873.949 706.403 874.696 712.752 876.227 718.57C877.758 724.369 880.146 729.41 883.426 733.712C886.707 738.014 890.99 741.368 896.312 743.756C901.598 746.106 908.032 747.338 915.596 747.375C918.421 747.375 921.392 747.167 924.454 746.769C927.534 746.371 930.596 745.803 933.603 745.101C936.629 744.343 939.472 743.434 942.115 742.353V730.869ZM886.361 693.062C886.361 689.233 886.981 685.462 888.22 681.729C889.441 678.033 891.227 674.622 893.56 671.552C895.893 668.463 898.7 666.018 902.017 664.161C905.334 662.304 909.071 661.356 913.263 661.337C917.473 661.356 921.064 662.247 924.016 664.047C926.969 665.81 929.393 668.198 931.252 671.211C933.093 674.205 934.442 677.616 935.317 681.369C936.155 685.14 936.574 689.025 936.574 693.062H886.361ZM970.457 745.215H981.757V694.672C981.757 691.583 982.03 688.494 982.595 685.348C983.16 682.222 984.09 679.227 985.329 676.347C986.623 673.485 988.3 670.927 990.396 668.672C992.492 666.416 995.044 664.635 998.106 663.327C1001.15 662.02 1004.7 661.356 1008.82 661.337C1014 661.356 1018.19 662.531 1021.38 664.843C1024.59 667.155 1026.92 670.434 1028.38 674.66C1029.84 678.886 1030.55 683.889 1030.53 689.65V745.215H1041.83V686.789C1041.83 681.729 1041.28 677.067 1040.12 672.822C1038.99 668.558 1037.16 664.843 1034.72 661.679C1032.23 658.514 1029 656.069 1025.03 654.307C1021.05 652.582 1016.28 651.672 1010.63 651.653C1005.91 651.672 1001.86 652.241 998.525 653.378C995.172 654.477 992.365 655.955 990.123 657.775C987.845 659.594 986.022 661.603 984.564 663.744C983.124 665.905 981.958 668.027 981.046 670.112H980.682V653.795H969.746C970.092 657.471 970.311 661.091 970.366 664.673C970.457 668.255 970.475 671.817 970.457 675.304V745.215ZM1077.15 699.505C1077.12 695.923 1077.39 692.341 1077.9 688.722C1078.41 685.102 1079.29 681.672 1080.51 678.393C1081.69 675.134 1083.35 672.196 1085.41 669.657C1087.47 667.099 1090.06 665.071 1093.14 663.593C1096.25 662.095 1099.95 661.356 1104.24 661.337C1109.38 661.356 1113.68 662.304 1117.18 664.199C1120.64 666.075 1123.41 668.747 1125.51 672.14C1127.57 675.57 1129.06 679.606 1129.99 684.249C1130.88 688.873 1131.34 693.971 1131.3 699.505C1131.3 702.878 1131.01 706.252 1130.37 709.663C1129.75 713.074 1128.77 716.296 1127.42 719.404C1126.07 722.474 1124.32 725.222 1122.14 727.647C1119.95 730.073 1117.34 731.987 1114.24 733.39C1111.16 734.792 1107.61 735.512 1103.51 735.531C1098.73 735.474 1094.67 734.47 1091.3 732.423C1087.94 730.395 1085.23 727.685 1083.13 724.236C1081.07 720.806 1079.54 716.959 1078.56 712.714C1077.61 708.45 1077.15 704.053 1077.15 699.505ZM1142.6 653.795H1131.3V664.199H1130.96C1128.17 660.579 1125.36 657.888 1122.52 656.069C1119.68 654.288 1116.63 653.056 1113.37 652.487C1110.12 651.881 1106.48 651.578 1102.43 651.653C1095.71 651.672 1089.97 652.885 1085.19 655.197C1080.43 657.566 1076.53 660.883 1073.54 665.147C1070.52 669.43 1068.31 674.471 1066.87 680.307C1065.47 686.125 1064.78 692.512 1064.78 699.505C1064.78 703.598 1065.16 707.787 1065.98 712.032C1066.82 716.296 1068.13 720.389 1069.92 724.331C1071.74 728.273 1074.16 731.836 1077.12 734.962C1080.11 738.108 1083.79 740.591 1088.09 742.41C1092.43 744.23 1097.51 745.196 1103.33 745.215C1107.24 745.253 1110.93 744.684 1114.37 743.509C1117.83 742.353 1120.97 740.458 1123.81 737.843C1126.64 735.209 1129.1 731.684 1131.12 727.287H1131.49C1131.52 732.499 1131.38 737.426 1131.01 742.088C1130.65 746.769 1129.88 751.071 1128.73 754.994C1127.6 758.898 1125.89 762.271 1123.59 765.171C1121.3 768.032 1118.22 770.287 1114.37 771.86C1110.51 773.452 1105.7 774.229 1099.94 774.248C1096.6 774.248 1093.36 773.964 1090.13 773.395C1086.89 772.827 1083.82 772.05 1080.91 771.064C1078.03 770.098 1075.39 769.018 1073.03 767.805L1072.14 779.1C1073.71 779.611 1075.9 780.218 1078.7 780.976C1081.49 781.715 1084.68 782.416 1088.27 783.004C1091.88 783.572 1095.71 783.894 1099.75 783.932C1107.57 783.894 1114.21 782.681 1119.68 780.294C1125.16 777.906 1129.57 774.589 1132.96 770.363C1136.33 766.118 1138.78 761.229 1140.34 755.638C1141.86 750.085 1142.64 744.078 1142.6 737.691V653.795ZM1222.4 745.215H1233.52C1233.22 743.13 1233.01 741.084 1232.9 739.094C1232.77 737.085 1232.68 735 1232.66 732.878C1232.62 730.755 1232.62 728.462 1232.62 726.036V685.709C1232.66 677.787 1231.55 671.306 1229.34 666.284C1227.1 661.262 1223.62 657.566 1218.9 655.178C1214.16 652.809 1208.04 651.616 1200.53 651.653C1198.5 651.653 1196.28 651.824 1193.89 652.146C1191.52 652.487 1189.12 652.942 1186.69 653.511C1184.23 654.098 1181.88 654.761 1179.64 655.5C1177.4 656.259 1175.39 657.054 1173.62 657.926V668.861C1177.85 666.208 1182.17 664.256 1186.69 663.062C1191.18 661.906 1195.77 661.3 1200.53 661.337C1205.58 661.337 1209.64 662.19 1212.68 663.953C1215.75 665.696 1217.95 668.311 1219.34 671.779C1220.7 675.285 1221.36 679.606 1221.32 684.818V689.461H1219.17C1215.2 689.442 1211.08 689.537 1206.81 689.707C1202.5 689.916 1198.25 690.333 1194.07 690.958C1189.86 691.621 1185.89 692.645 1182.14 694.009C1178.42 695.393 1175.1 697.269 1172.22 699.619C1169.32 701.969 1167.06 704.944 1165.4 708.526C1163.75 712.107 1162.89 716.466 1162.87 721.545C1162.83 723.232 1163.05 725.203 1163.49 727.42C1163.95 729.618 1164.79 731.892 1165.99 734.185C1167.21 736.516 1168.9 738.677 1171.15 740.648C1173.39 742.657 1176.32 744.267 1179.88 745.48C1183.47 746.712 1187.82 747.338 1193 747.375C1195.84 747.375 1198.7 747.015 1201.6 746.257C1204.48 745.537 1207.25 744.476 1209.88 743.036C1212.5 741.633 1214.87 739.871 1217 737.786C1219.08 735.645 1220.76 733.276 1222.05 730.528H1222.4V745.215ZM1221.32 704.698C1221.36 706.744 1221.27 709.132 1221.07 711.899C1220.85 714.723 1220.3 717.584 1219.45 720.579C1218.57 723.554 1217.17 726.34 1215.27 728.898C1213.32 731.494 1210.66 733.598 1207.25 735.209C1203.88 736.82 1199.54 737.616 1194.26 737.691C1190.76 737.71 1187.57 737.18 1184.69 736.081C1181.84 735 1179.55 733.238 1177.87 730.812C1176.18 728.405 1175.27 725.165 1175.25 721.204C1175.27 717.186 1176.14 713.87 1177.82 711.179C1179.51 708.526 1181.79 706.384 1184.69 704.773C1187.59 703.163 1190.9 701.931 1194.58 701.116C1198.25 700.32 1202.11 699.77 1206.14 699.505C1210.19 699.24 1214.16 699.126 1218.1 699.145H1221.32V704.698ZM1259.53 745.215H1270.83V694.672C1270.83 691.583 1271.08 688.494 1271.65 685.348C1272.23 682.222 1273.16 679.227 1274.4 676.347C1275.69 673.485 1277.37 670.927 1279.46 668.672C1281.54 666.416 1284.11 664.635 1287.16 663.327C1290.22 662.02 1293.77 661.356 1297.89 661.337C1303.07 661.356 1307.24 662.531 1310.45 664.843C1313.64 667.155 1315.97 670.434 1317.45 674.66C1318.91 678.886 1319.62 683.889 1319.6 689.65V745.215H1330.9V686.789C1330.9 681.729 1330.35 677.067 1329.19 672.822C1328.06 668.558 1326.23 664.843 1323.77 661.679C1321.29 658.514 1318.07 656.069 1314.09 654.307C1310.12 652.582 1305.33 651.672 1299.68 651.653C1294.96 651.672 1290.93 652.241 1287.59 653.378C1284.24 654.477 1281.43 655.955 1279.19 657.775C1276.91 659.594 1275.09 661.603 1273.63 663.744C1272.19 665.905 1271.03 668.027 1270.1 670.112H1269.75V653.795H1258.8C1259.16 657.471 1259.38 661.091 1259.43 664.673C1259.53 668.255 1259.54 671.817 1259.53 675.304V745.215ZM1405.66 741.993C1408.98 743.453 1413.03 744.703 1417.75 745.746C1422.49 746.769 1427.9 747.3 1434 747.375C1437.92 747.375 1441.81 746.94 1445.72 746.106C1449.61 745.272 1453.31 743.983 1456.84 742.221C1460.32 740.439 1463.48 738.165 1466.19 735.417C1468.94 732.631 1471.1 729.296 1472.64 725.449C1474.23 721.545 1475.03 717.111 1475.07 712.051C1475.03 707.521 1474.19 703.447 1472.61 699.922C1471 696.397 1468.82 693.27 1466.1 690.484C1463.39 687.736 1460.31 685.254 1456.92 683.055C1453.53 680.8 1449.99 678.753 1446.38 676.839C1442.75 674.925 1439.24 673.03 1435.83 671.154C1432.46 669.297 1429.38 667.364 1426.66 665.336C1423.93 663.27 1421.76 661.034 1420.13 658.59C1418.55 656.126 1417.71 653.321 1417.69 650.213C1417.71 646.177 1418.53 642.803 1420.1 640.055C1421.67 637.27 1423.74 635.071 1426.39 633.403C1429.01 631.755 1431.91 630.523 1435.08 629.784C1438.27 629.064 1441.51 628.685 1444.76 628.704C1447.6 628.704 1450.41 628.893 1453.18 629.253C1455.97 629.575 1458.57 630.106 1461.05 630.788C1463.5 631.489 1465.65 632.342 1467.54 633.366L1469.51 622.071C1466.61 620.991 1463.64 620.157 1460.65 619.569C1457.66 618.963 1454.84 618.546 1452.12 618.299C1449.39 618.072 1447 617.958 1444.94 617.958C1439.38 617.958 1434.24 618.735 1429.43 620.214C1424.65 621.711 1420.46 623.89 1416.84 626.733C1413.26 629.575 1410.42 632.968 1408.38 637.004C1406.39 641.022 1405.34 645.532 1405.32 650.573C1405.34 654.667 1406.17 658.305 1407.8 661.565C1409.38 664.824 1411.55 667.781 1414.28 670.377C1417 673.011 1420.08 675.437 1423.49 677.616C1426.86 679.815 1430.38 681.918 1434 683.851C1437.61 685.822 1441.15 687.793 1444.56 689.707C1447.93 691.64 1451.01 693.687 1453.73 695.809C1456.44 697.894 1458.63 700.187 1460.25 702.67C1461.82 705.152 1462.66 707.938 1462.69 710.989C1462.66 715.405 1461.91 719.252 1460.45 722.474C1459.01 725.714 1456.99 728.367 1454.42 730.452C1451.81 732.556 1448.82 734.11 1445.45 735.114C1442.06 736.1 1438.42 736.611 1434.53 736.611C1428.74 736.611 1423.6 735.948 1419.11 734.697C1414.63 733.408 1410.57 731.627 1406.92 729.258L1405.66 741.993ZM1560.06 730.869C1558.69 731.741 1556.98 732.575 1554.95 733.39C1552.91 734.185 1550.71 734.906 1548.32 735.569C1545.93 736.194 1543.56 736.725 1541.14 737.085C1538.75 737.483 1536.51 737.691 1534.41 737.691C1529.49 737.654 1525.15 736.725 1521.38 734.944C1517.65 733.143 1514.49 730.661 1511.94 727.477C1509.43 724.274 1507.51 720.579 1506.24 716.352C1504.94 712.145 1504.3 707.597 1504.3 702.727H1566.87V697.003C1566.87 690.806 1566.18 684.988 1564.81 679.549C1563.45 674.11 1561.28 669.297 1558.36 665.128C1555.43 660.939 1551.66 657.661 1547.06 655.292C1542.45 652.904 1536.93 651.672 1530.48 651.653C1524.68 651.672 1519.41 652.885 1514.69 655.197C1509.97 657.528 1505.91 660.826 1502.54 665.09C1499.13 669.354 1496.52 674.414 1494.7 680.232C1492.88 686.069 1491.95 692.493 1491.93 699.505C1491.89 706.403 1492.64 712.752 1494.15 718.57C1495.68 724.369 1498.07 729.41 1501.37 733.712C1504.65 738.014 1508.91 741.368 1514.24 743.756C1519.52 746.106 1525.96 747.338 1533.52 747.375C1536.36 747.375 1539.32 747.167 1542.4 746.769C1545.48 746.371 1548.52 745.803 1551.55 745.101C1554.55 744.343 1557.4 743.434 1560.06 742.353V730.869ZM1504.3 693.062C1504.3 689.233 1504.92 685.462 1506.14 681.729C1507.37 678.033 1509.17 674.622 1511.5 671.552C1513.84 668.463 1516.64 666.018 1519.96 664.161C1523.28 662.304 1527.01 661.356 1531.19 661.337C1535.4 661.356 1538.99 662.247 1541.94 664.047C1544.91 665.81 1547.34 668.198 1549.18 671.211C1551.04 674.205 1552.38 677.616 1553.24 681.369C1554.08 685.14 1554.5 689.025 1554.5 693.062H1504.3ZM1627.84 653.795H1607.05V627.813L1595.74 631.755V653.795H1577.81V663.479H1595.74V716.902C1595.69 721.071 1595.84 725.013 1596.16 728.69C1596.49 732.366 1597.33 735.588 1598.61 738.374C1599.9 741.178 1602 743.358 1604.82 744.95C1607.66 746.523 1611.58 747.338 1616.54 747.375C1618.42 747.375 1620.22 747.224 1621.99 746.94C1623.74 746.674 1625.36 746.371 1626.82 745.992C1628.26 745.613 1629.43 745.215 1630.36 744.855L1629.63 735.531C1628.04 736.156 1626.46 736.706 1624.82 737.085C1623.21 737.483 1621.35 737.691 1619.24 737.691C1616.21 737.654 1613.79 736.971 1612 735.626C1610.2 734.28 1608.96 732.461 1608.18 730.187C1607.39 727.951 1607.01 725.411 1607.05 722.625V663.479H1627.84V653.795ZM1719.48 653.795H1708.18V704.337C1708.18 707.427 1707.91 710.534 1707.34 713.661C1706.78 716.807 1705.85 719.802 1704.59 722.663C1703.3 725.525 1701.64 728.102 1699.54 730.338C1697.45 732.613 1694.88 734.375 1691.83 735.683C1688.77 737.009 1685.22 737.654 1681.1 737.691C1675.92 737.654 1671.75 736.498 1668.54 734.167C1665.35 731.854 1663.02 728.576 1661.56 724.369C1660.08 720.124 1659.37 715.14 1659.41 709.36V653.795H1648.11V712.24C1648.11 717.281 1648.67 721.943 1649.8 726.188C1650.95 730.452 1652.76 734.167 1655.24 737.331C1657.7 740.496 1660.92 742.941 1664.9 744.703C1668.87 746.447 1673.66 747.338 1679.31 747.375C1684.03 747.338 1688.06 746.769 1691.41 745.632C1694.75 744.533 1697.57 743.055 1699.8 741.216C1702.08 739.397 1703.9 737.426 1705.36 735.266C1706.8 733.105 1707.96 731.002 1708.89 728.898H1709.26V745.215H1720.19C1719.87 741.539 1719.65 737.9 1719.56 734.318C1719.5 730.736 1719.48 727.193 1719.48 723.706V653.795ZM1747.81 745.215H1759.11V610.776H1747.81V745.215ZM1858.99 653.795H1847.69V704.337C1847.69 707.427 1847.41 710.534 1846.85 713.661C1846.28 716.807 1845.35 719.802 1844.1 722.663C1842.82 725.525 1841.14 728.102 1839.05 730.338C1836.97 732.613 1834.38 734.375 1831.34 735.683C1828.29 737.009 1824.74 737.654 1820.6 737.691C1815.44 737.654 1811.25 736.498 1808.06 734.167C1804.85 731.854 1802.54 728.576 1801.06 724.369C1799.61 720.124 1798.88 715.14 1798.91 709.36V653.795H1787.61V712.24C1787.61 717.281 1788.18 721.943 1789.33 726.188C1790.46 730.452 1792.28 734.167 1794.76 737.331C1797.22 740.496 1800.44 742.941 1804.42 744.703C1808.39 746.447 1813.17 747.338 1818.82 747.375C1823.54 747.338 1827.58 746.769 1830.92 745.632C1834.27 744.533 1837.08 743.055 1839.32 741.216C1841.6 739.397 1843.42 737.426 1844.88 735.266C1846.32 733.105 1847.49 731.002 1848.42 728.898H1848.76V745.215H1859.7C1859.37 741.539 1859.17 737.9 1859.08 734.318C1859.02 730.736 1858.99 727.193 1858.99 723.706V653.795ZM1879.25 743.055C1883.32 744.646 1887.49 745.784 1891.81 746.409C1896.11 747.072 1900.51 747.394 1904.9 747.375C1907.67 747.375 1910.57 747.091 1913.54 746.523C1916.45 745.973 1919.33 745.044 1922.1 743.775C1924.86 742.562 1927.33 740.913 1929.56 738.885C1931.76 736.858 1933.53 734.394 1934.81 731.494C1936.12 728.595 1936.78 725.222 1936.81 721.375C1936.78 717.129 1935.96 713.453 1934.33 710.345C1932.69 707.275 1930.56 704.622 1927.88 702.367C1925.22 700.13 1922.29 698.197 1919.1 696.511C1915.89 694.881 1912.72 693.327 1909.53 691.925C1906.32 690.522 1903.4 689.082 1900.74 687.642C1898.05 686.22 1895.93 684.59 1894.29 682.847C1892.67 681.047 1891.83 678.943 1891.81 676.574C1891.83 672.708 1892.67 669.657 1894.31 667.421C1895.99 665.203 1898.28 663.631 1901.25 662.664C1904.17 661.735 1907.61 661.3 1911.53 661.337C1913.65 661.337 1915.89 661.508 1918.26 661.83C1920.61 662.19 1922.98 662.664 1925.31 663.327C1927.64 663.953 1929.8 664.73 1931.8 665.639L1932.88 655.766C1930.14 654.761 1927.33 653.946 1924.49 653.359C1921.67 652.753 1918.97 652.317 1916.49 652.032C1914.01 651.767 1911.92 651.653 1910.28 651.653C1906.48 651.653 1902.8 652.089 1899.27 652.999C1895.75 653.89 1892.54 655.349 1889.73 657.32C1886.93 659.291 1884.69 661.868 1883.05 665.033C1881.4 668.198 1880.53 672.064 1880.51 676.574C1880.53 680.326 1881.37 683.548 1882.95 686.277C1884.52 688.968 1886.6 691.299 1889.24 693.27C1891.83 695.203 1894.67 696.966 1897.81 698.519C1900.93 700.055 1904.02 701.533 1907.16 702.973C1910.28 704.432 1913.14 705.986 1915.74 707.635C1918.35 709.303 1920.43 711.255 1922.01 713.453C1923.6 715.67 1924.42 718.304 1924.44 721.375C1924.42 723.971 1923.87 726.302 1922.8 728.311C1921.72 730.338 1920.23 732.044 1918.35 733.446C1916.45 734.811 1914.3 735.891 1911.9 736.611C1909.47 737.331 1906.9 737.691 1904.17 737.691C1899.76 737.654 1895.53 737.123 1891.5 736.1C1887.47 735.057 1883.76 733.674 1880.33 731.949L1879.25 743.055ZM2008.53 745.215H2020.91V686.239H2084.21V745.215H2096.58V620.1H2084.21V675.494H2020.91V620.1H2008.53V745.215Z" fill="#005093"/>
<path fill-rule="evenodd" clip-rule="evenodd" d="M2179.08 745.215H2190.19C2189.88 743.13 2189.68 741.084 2189.56 739.094C2189.45 737.085 2189.36 735 2189.32 732.878C2189.3 730.755 2189.3 728.462 2189.3 726.036V685.708C2189.32 677.787 2188.23 671.306 2186 666.283C2183.76 661.261 2180.3 657.566 2175.58 655.178C2170.82 652.809 2164.7 651.615 2157.2 651.653C2155.16 651.653 2152.96 651.824 2150.57 652.146C2148.2 652.487 2145.78 652.942 2143.35 653.51C2140.91 654.098 2138.54 654.761 2136.3 655.5C2134.08 656.258 2132.07 657.054 2130.3 657.926V668.861C2134.51 666.208 2138.85 664.256 2143.35 663.062C2147.84 661.906 2152.45 661.299 2157.2 661.337C2162.25 661.337 2166.32 662.19 2169.36 663.952C2172.41 665.696 2174.63 668.311 2176 671.779C2177.36 675.285 2178.04 679.606 2178 684.818V689.461H2175.85C2171.88 689.442 2167.76 689.536 2163.47 689.707C2159.17 689.916 2154.93 690.332 2150.73 690.958C2146.52 691.621 2142.55 692.644 2138.81 694.009C2135.08 695.392 2131.76 697.269 2128.9 699.618C2126 701.968 2123.72 704.944 2122.08 708.526C2120.41 712.107 2119.57 716.466 2119.55 721.545C2119.51 723.232 2119.71 725.203 2120.17 727.42C2120.62 729.618 2121.44 731.892 2122.65 734.185C2123.87 736.516 2125.58 738.677 2127.82 740.648C2130.07 742.656 2133 744.267 2136.55 745.48C2140.13 746.712 2144.5 747.337 2149.66 747.375C2152.5 747.375 2155.38 747.015 2158.28 746.257C2161.14 745.537 2163.93 744.476 2166.55 743.036C2169.18 741.633 2171.55 739.871 2173.66 737.786C2175.76 735.645 2177.44 733.276 2178.71 730.528H2179.08V745.215ZM2178 704.697C2178.04 706.744 2177.95 709.132 2177.73 711.899C2177.53 714.723 2176.98 717.584 2176.12 720.578C2175.25 723.554 2173.84 726.34 2171.93 728.898C2169.98 731.494 2167.32 733.598 2163.93 735.209C2160.54 736.82 2156.2 737.615 2150.92 737.691C2147.42 737.71 2144.23 737.18 2141.35 736.08C2138.52 735 2136.21 733.238 2134.55 730.812C2132.84 728.405 2131.94 725.165 2131.91 721.204C2131.94 717.186 2132.82 713.87 2134.48 711.179C2136.19 708.526 2138.47 706.384 2141.35 704.773C2144.26 703.162 2147.58 701.931 2151.24 701.116C2154.93 700.32 2158.79 699.77 2162.82 699.505C2166.85 699.239 2170.82 699.126 2174.77 699.145H2178V704.697ZM2255.64 653.795H2234.85V627.813L2223.55 631.755V653.795H2205.61V663.479H2223.55V716.902C2223.48 721.071 2223.64 725.013 2223.97 728.69C2224.3 732.366 2225.13 735.588 2226.41 738.374C2227.7 741.178 2229.78 743.358 2232.62 744.95C2235.47 746.523 2239.39 747.337 2244.34 747.375C2246.22 747.375 2248.03 747.224 2249.78 746.939C2251.54 746.674 2253.17 746.371 2254.62 745.992C2256.06 745.613 2257.23 745.215 2258.16 744.855L2257.43 735.531C2255.84 736.156 2254.26 736.706 2252.62 737.085C2251.01 737.483 2249.16 737.691 2247.04 737.691C2244.02 737.653 2241.59 736.971 2239.81 735.626C2238 734.28 2236.76 732.461 2235.98 730.187C2235.19 727.95 2234.81 725.411 2234.85 722.625V663.479H2255.64V653.795ZM2275.91 745.215H2287.19V653.795H2275.91V745.215ZM2287.19 614.357H2275.91V629.424H2287.19V614.357Z" fill="#005093"/>
<path fill-rule="evenodd" clip-rule="evenodd" d="M1487.68 146.947H1560.6V255.689L1651.7 146.947H1738.51L1638.89 262.739L1743.3 396.856H1650.81L1560.6 279.927V396.856H1487.68V146.947ZM1198.1 146.947H1298.78L1385.96 331.626V146.947H1450.35V396.856H1349.31L1262.5 209.429V396.856H1198.1V146.947ZM984.655 146.947H1077.96L1186.55 396.856H1099.37L1081.02 342.409H972.808L954.837 396.856H873.384L984.655 146.947ZM1059.98 299.182L1027.1 198.381L990.779 299.182H1059.98ZM648.162 146.947H766.578C770.97 147.175 777.823 147.516 787.119 147.99C796.396 148.444 806.056 150.055 816.08 152.822C829.039 156.271 840.941 162.241 851.822 170.769C862.703 179.278 868.882 192.278 870.34 209.77C870.34 210.225 870.34 210.642 870.34 210.983C870.34 211.324 870.468 211.722 870.704 212.196C870.704 212.651 870.704 213.049 870.704 213.39C870.704 213.75 870.704 214.148 870.704 214.603C870.704 228.418 865.437 240.206 854.939 249.984C844.422 259.763 830.37 265.354 812.763 266.718C813.018 266.718 813.219 266.794 813.328 266.889C813.456 267.022 813.638 267.078 813.875 267.078C829.513 271.21 843.821 277.881 856.78 287.091C869.72 296.301 876.209 310.325 876.209 329.2C876.209 353.59 866.968 370.968 848.523 381.335C830.078 391.682 802.757 396.856 766.578 396.856H648.162V146.947ZM723.327 347.848H763.643C774.652 348.075 782.708 346.18 787.848 342.144C792.988 338.126 796.159 333.692 797.38 328.859C797.617 327.93 797.818 327.078 797.927 326.263C798.055 325.467 798.109 324.595 798.109 323.685C798.109 322.302 798 320.862 797.745 319.364C797.508 317.867 797.016 316.313 796.287 314.703C794.573 310.325 791.329 306.25 786.554 302.46C781.797 298.651 775.144 296.756 766.578 296.756L723.327 296.415V347.848ZM723.327 244.64H760.727C772.21 244.868 780.393 242.916 785.278 238.765C790.181 234.615 792.605 228.532 792.605 220.478C792.605 213.807 789.798 208.046 784.184 203.213C778.553 198.381 770.733 195.955 760.727 195.955L723.327 195.614V244.64Z" fill="#005093"/>
<path fill-rule="evenodd" clip-rule="evenodd" d="M2424.27 146.947H2500.04V396.856H2424.27V146.947ZM2149.51 146.947H2268.91C2270.15 147.175 2271.32 147.288 2272.43 147.288C2273.54 147.288 2274.71 147.288 2275.93 147.288C2301.08 147.762 2324.12 152.235 2345.06 160.763C2366 169.272 2376.5 186.536 2376.5 212.537C2376.5 232.777 2370.2 247.578 2357.64 256.902C2345.06 266.207 2330.03 272.252 2312.53 275.019C2338.9 275.929 2355.23 284.21 2361.52 299.864C2374.39 331.91 2385.67 365.7 2398.03 396.856H2316.7C2306 374.304 2296.4 342.636 2287.76 318.493C2283.82 307.444 2274.58 301.929 2260.04 301.929L2225.3 301.588V396.856H2149.51V146.947ZM2225.3 198.381V252.922H2254.5C2255.74 253.149 2256.9 253.263 2258.01 253.263C2259.11 253.263 2260.29 253.263 2261.53 253.263C2270.64 252.808 2279.03 250.856 2286.67 247.388C2294.3 243.939 2298.11 236.813 2298.11 225.992C2298.11 216.555 2294.17 209.656 2286.3 205.279C2278.41 200.92 2268.68 198.722 2257.08 198.722L2225.3 198.381ZM1884.83 146.947H2004.23C2008.68 147.175 2015.57 147.516 2024.94 147.99C2034.3 148.444 2044.04 150.055 2054.14 152.822C2067.2 156.271 2079.21 162.241 2090.19 170.769C2101.16 179.278 2107.37 192.278 2108.85 209.77C2108.85 210.225 2108.85 210.642 2108.85 210.983C2108.85 211.324 2108.98 211.722 2109.21 212.196C2109.21 212.651 2109.21 213.049 2109.21 213.39C2109.21 213.75 2109.21 214.148 2109.21 214.603C2109.21 228.418 2103.93 240.206 2093.32 249.984C2082.73 259.763 2068.57 265.354 2050.82 266.718C2051.05 266.718 2051.26 266.794 2051.36 266.889C2051.49 267.022 2051.67 267.078 2051.93 267.078C2067.7 271.21 2082.11 277.881 2095.18 287.091C2108.23 296.301 2114.76 310.325 2114.76 329.2C2114.76 353.59 2105.46 370.968 2086.85 381.335C2068.26 391.682 2040.72 396.856 2004.23 396.856H1884.83V146.947ZM1960.62 347.848H2001.28C2012.38 348.075 2020.51 346.18 2025.67 342.144C2030.86 338.126 2034.07 333.692 2035.29 328.859C2035.54 327.93 2035.73 327.078 2035.84 326.263C2035.96 325.467 2036.02 324.595 2036.02 323.685C2036.02 322.302 2035.91 320.862 2035.65 319.364C2035.42 317.867 2034.91 316.313 2034.18 314.703C2032.46 310.325 2029.18 306.25 2024.39 302.46C2019.58 298.651 2012.85 296.756 2004.23 296.756L1960.62 296.415V347.848ZM1960.62 244.64H1998.33C2009.9 244.868 2018.16 242.916 2023.1 238.765C2028.02 234.615 2030.5 228.532 2030.5 220.478C2030.5 213.807 2027.65 208.046 2021.98 203.213C2016.32 198.381 2008.42 195.955 1998.33 195.955L1960.62 195.614V244.64Z" fill="#005093"/>
</g>
<defs>
<clipPath id="clip0_759_88">
<rect width="2500" height="784" fill="white"/>
</clipPath>
</defs>
</svg>
