<svg width="2500" height="715" viewBox="0 0 2500 715" fill="none" xmlns="http://www.w3.org/2000/svg">
<g clip-path="url(#clip0_765_150)">
<path fill-rule="evenodd" clip-rule="evenodd" d="M988.221 542.147C1035.73 545.55 1091.1 508.639 1110.6 487.566C1178.4 414.202 1180.04 308.115 1111.78 231.283C1086.39 202.683 1026.7 171.073 988.941 175.524H852.227V541.689L988.549 542.147H988.221ZM929.321 462.827V254.385C950.72 252.981 972.189 252.981 993.588 254.385C1010.43 256.337 1026.49 262.555 1040.25 272.448C1118.78 326.113 1086.06 454.058 992.279 462.631C971.321 464.104 950.288 464.17 929.321 462.827Z" fill="#008CEB"/>
<path fill-rule="evenodd" clip-rule="evenodd" d="M2188.42 542.801H2266.36V463.875H2421.01L2421.47 542.409H2499.41V412.304C2499.41 373.037 2502.68 324.084 2492.87 288.547C2483.95 256.015 2464.64 227.291 2437.87 206.759C2411.11 186.226 2378.36 175.012 2344.63 174.827C2310.9 174.641 2278.03 185.495 2251.05 205.732C2224.06 225.969 2204.43 254.478 2195.16 286.911C2184.69 321.99 2188.22 372.317 2188.22 411.257C2188.22 455.236 2187.76 499.477 2188.22 543.456L2188.42 542.801ZM2266.43 384.49C2265.97 351.767 2262.5 316.754 2277.88 291.558C2284.63 279.958 2294.33 270.352 2306 263.72C2317.67 257.087 2330.89 253.663 2344.31 253.796C2357.66 253.895 2370.76 257.456 2382.32 264.132C2393.88 270.809 2403.51 280.371 2410.28 291.885C2425.46 318.063 2421.86 350.786 2421.47 384.555L2266.43 384.49Z" fill="#008CEB"/>
<path fill-rule="evenodd" clip-rule="evenodd" d="M1297.06 542.736H1374.74C1374.74 526.243 1372.64 475.785 1375.46 463.809H1529.52L1530.04 542.67H1607.85C1607.46 498.953 1607.85 455.301 1607.85 411.78C1607.85 374.476 1611.32 321.073 1601.31 287.958C1592.34 255.468 1572.99 226.798 1546.23 206.314C1519.46 185.829 1486.73 174.651 1453.03 174.48C1419.32 174.31 1386.48 185.157 1359.51 205.369C1332.53 225.582 1312.9 254.055 1303.6 286.453C1293.19 320.484 1296.73 372.513 1296.73 410.406C1296.73 454.123 1295.75 498.953 1296.73 542.539L1297.06 542.736ZM1374.8 384.49C1374.28 351.767 1370.94 316.296 1386.32 291.623C1393.07 280.053 1402.74 270.454 1414.35 263.782C1425.97 257.111 1439.13 253.6 1452.52 253.6C1465.92 253.6 1479.08 257.111 1490.69 263.782C1502.31 270.454 1511.97 280.053 1518.72 291.623C1533.97 317.801 1530.3 351.047 1530.04 384.359L1374.8 384.49Z" fill="#008CEB"/>
<path fill-rule="evenodd" clip-rule="evenodd" d="M1744.57 318.521L1743.46 373.036C1743.46 418.848 1741.23 504.385 1743.46 541.623H1819.63C1821.4 515.445 1816.89 329.515 1821.66 323.56C1821.66 287.434 1859.42 253.796 1897.51 253.665C1917.31 253.545 1936.38 261.153 1950.65 274.869C1960.34 283.704 1975.2 303.861 1974.93 324.214C1978.47 326.243 1975.65 520.549 1976.77 542.081H2053.01L2052.42 319.895C2054.32 302.487 2043.85 275.589 2037.11 261.976C2024.61 236.039 2005.09 214.12 1980.78 198.702C1956.46 183.283 1928.31 174.982 1899.52 174.736C1870.73 174.491 1842.45 182.312 1817.87 197.314C1793.3 212.316 1773.41 233.9 1760.47 259.62C1753.93 273.036 1742.93 300.654 1744.57 318.521Z" fill="#008CEB"/>
<path d="M357.395 714.791C554.779 714.791 714.791 554.779 714.791 357.395C714.791 160.011 554.779 0 357.395 0C160.011 0 0 160.011 0 357.395C0 554.779 160.011 714.791 357.395 714.791Z" fill="#008CEB"/>
<path d="M565.64 358.901V459.49C565.64 466.034 562.826 467.409 557.329 464.202C549.975 459.789 542.321 455.896 534.423 452.553C510.571 443.05 484.734 439.61 459.227 442.539C431.386 446.151 404.063 453.004 377.813 462.958C351.635 471.793 325.981 481.348 299.279 488.744C277.163 495.311 254.147 498.337 231.085 497.71C205.527 496.718 180.688 488.973 159.096 475.262C156.383 473.628 154.157 471.297 152.649 468.512C151.142 465.727 150.407 462.589 150.522 459.424C150.522 393.543 150.522 327.662 150.522 261.78C150.522 258.574 150.522 254.778 153.402 253.142C156.282 251.505 159.227 254.189 161.714 255.825C185.16 271.679 212.93 279.907 241.229 279.385C261.464 278.555 281.475 274.83 300.653 268.325C327.878 259.882 354.187 248.691 380.954 239.202C401.791 231.194 423.155 224.634 444.894 219.568C463.552 215.199 482.912 214.74 501.755 218.221C520.599 221.701 538.518 229.045 554.384 239.791C558.021 242.019 561 245.177 563.012 248.938C565.025 252.699 566 256.928 565.837 261.191C565.837 293.914 565.837 326.636 565.837 359.359L565.64 358.901Z" fill="#FEFEFE"/>
</g>
<defs>
<clipPath id="clip0_765_150">
<rect width="2500" height="714.791" fill="white"/>
</clipPath>
</defs>
</svg>
