<svg width="2500" height="751" viewBox="0 0 2500 751" fill="none" xmlns="http://www.w3.org/2000/svg">
<path d="M1645.48 572.882C1535.27 572.882 1470.08 498.546 1473.13 401.698C1476.88 277.882 1586.16 175.171 1716.54 175.171C1772.35 175.171 1817.14 189.71 1846.92 204.718L1829.57 296.407C1792.28 276.24 1760.39 264.046 1708.56 264.046C1627.43 264.046 1573.73 324.547 1571.85 389.973C1570.21 442.032 1601.63 485.18 1662.13 485.18C1675.73 485.18 1691.68 483.069 1702.47 480.49L1726.15 355.267H1818.54L1782.67 544.273C1743.5 562.33 1691.92 572.882 1645.48 572.882Z" fill="#1899D6"/>
<path d="M2112.84 355.267L1928.76 245.521L1880.22 502.298L2112.84 355.267Z" fill="#1899D6"/>
<path d="M744.771 314.464C792.609 314.464 827.315 342.604 827.315 385.752C827.315 442.032 777.601 480.959 728.122 480.959C680.284 480.959 645.578 453.053 645.578 409.671C645.578 353.86 695.057 314.464 744.771 314.464ZM729.06 436.638C750.399 436.638 773.38 418.347 773.38 389.269C773.38 370.509 760.951 359.019 744.302 359.019C723.197 359.019 699.747 378.248 699.747 407.326C699.513 425.851 711.941 436.638 729.06 436.638Z" fill="#2F4049"/>
<path d="M882.188 256.308H966.608C979.505 256.308 990.761 258.419 1000.38 263.109C1021.01 272.958 1032.5 293.359 1032.5 319.154C1032.5 356.205 1011.4 387.862 981.85 401.698C971.298 406.622 959.573 409.202 947.848 409.202H906.81L893.444 477.441H839.274L882.188 256.308ZM941.985 362.771C948.786 362.771 955.352 361.598 960.276 358.081C970.36 351.28 976.926 338.617 976.926 324.078C976.926 311.181 969.422 302.739 954.648 302.739H927.446L915.721 362.771H941.985Z" fill="#2F4049"/>
<path d="M1133.1 378.013H1135.21C1135.45 375.903 1135.92 373.089 1135.92 372.151C1135.92 361.598 1128.41 357.612 1115.75 357.612C1095.58 357.612 1069.79 372.151 1069.79 372.151L1058.3 332.051C1058.3 332.051 1091.13 314.464 1126.3 314.464C1153.27 314.464 1189.38 325.016 1189.38 365.116C1189.38 369.806 1188.68 374.965 1187.74 380.593L1169.22 477.441H1120.44L1122.32 467.827C1123.25 462.668 1125.13 457.978 1125.13 457.978H1124.43C1124.43 457.978 1107.07 481.193 1077.53 481.193C1053.84 481.193 1030.86 466.889 1030.86 440.156C1030.86 391.614 1092.3 378.013 1133.1 378.013ZM1097.46 440.156C1111.29 440.156 1126.54 424.913 1128.88 412.016L1129.58 408.498H1124.66C1113.17 408.498 1084.56 411.078 1084.56 429.838C1084.56 435.7 1088.55 440.156 1097.46 440.156Z" fill="#2F4049"/>
<path d="M1216.58 497.374C1225.96 497.374 1236.99 494.794 1245.43 481.193L1250.12 473.689L1212.83 317.512H1268.41L1281.31 396.304C1282.95 404.981 1282.95 419.754 1282.95 419.754H1283.65C1283.65 419.754 1289.28 405.919 1293.27 397.242L1328.91 317.512H1388.94L1289.51 493.622C1269.82 528.562 1242.14 541.46 1219.87 541.46C1196.42 541.46 1178.13 529.031 1178.13 529.031L1201.34 491.98C1200.87 492.449 1207.44 497.374 1216.58 497.374Z" fill="#2F4049"/>
<path d="M524.576 482.131C459.854 482.131 421.631 438.749 423.272 382.469C425.617 310.243 489.635 250.446 566.317 250.446C599.147 250.446 625.176 258.653 642.529 267.564L632.446 321.03C610.637 309.305 591.877 302.035 561.627 302.035C514.023 302.035 482.366 337.445 481.193 375.434C480.255 405.684 498.546 431.01 534.19 431.01C542.163 431.01 551.543 429.838 557.875 428.196L571.71 355.267H625.88L605.009 465.482C582.028 476.034 551.778 482.131 524.576 482.131Z" fill="#2F4049"/>
</svg>
