<svg width="2500" height="2500" viewBox="0 0 2500 2500" fill="none" xmlns="http://www.w3.org/2000/svg">
<mask id="mask0_765_118" style="mask-type:alpha" maskUnits="userSpaceOnUse" x="0" y="8" width="2492" height="2484">
<path d="M0 8.62122H2491.39V2491.42H0V8.62122Z" fill="white"/>
</mask>
<g mask="url(#mask0_765_118)">
<path fill-rule="evenodd" clip-rule="evenodd" d="M2257.47 2491.42H233.919C105.268 2491.42 -6.10352e-05 2386.53 -6.10352e-05 2258.31V241.733C-6.10352e-05 113.526 105.268 8.62122 233.919 8.62122H2257.47C2386.13 8.62122 2491.39 113.526 2491.39 241.733V2258.31C2491.39 2386.53 2386.13 2491.42 2257.47 2491.42Z" fill="#E82529"/>
</g>
<path fill-rule="evenodd" clip-rule="evenodd" d="M537.518 476.137H655.554C664.542 476.137 671.445 484.077 670.165 492.939L615.347 871.904C613.236 886.491 624.594 899.551 639.378 899.551H846.445C852.328 899.551 856.835 904.758 855.978 910.551L839.914 1019.4C839.084 1025.05 834.213 1029.25 828.47 1029.25H594.335C524.689 1029.25 457.899 972.327 467.726 903.611L522.89 488.913C523.859 481.603 530.113 476.137 537.518 476.137Z" fill="#FEFEFE"/>
<path fill-rule="evenodd" clip-rule="evenodd" d="M931.126 627.351L877.095 1013.83C876.239 1019.96 881.014 1025.44 887.225 1025.44H1001.45C1009.57 1025.44 1016.45 1019.47 1017.58 1011.45L1071.08 631.256C1072.22 622.497 1065.38 614.73 1056.52 614.73H945.676C938.341 614.73 932.138 620.118 931.126 627.351Z" fill="#FEFEFE"/>
<path fill-rule="evenodd" clip-rule="evenodd" d="M1166.73 995.801C1131.48 994.534 1115 1005.54 1094.2 1017.9C1099.22 983.06 1138.57 711.517 1142.16 694.836C1145.96 677.051 1149.41 647.379 1165.1 632.413C1183.49 614.844 1211.96 604.793 1353.6 604.336C1498.19 603.87 1526.2 707.569 1518.53 774.948C1511.99 832.62 1490.47 975.112 1484.4 1014.92C1483.47 1020.97 1478.28 1025.43 1472.17 1025.43H1360.48C1352.3 1025.43 1346.01 1018.24 1347.15 1010.17C1352.8 970.362 1367.95 864.232 1373.09 833.413C1379.46 795.293 1384.56 753.344 1374.36 736.784C1364.15 720.258 1333.53 707.569 1274.85 717.741L1231.45 1023.54C1231.45 1023.54 1203.53 997.129 1166.73 995.801Z" fill="#FEFEFE"/>
<path fill-rule="evenodd" clip-rule="evenodd" d="M1639.65 454.181H1763.54C1768.16 454.181 1771.7 458.241 1771.07 462.793L1693.98 1019.34C1693.41 1023.47 1689.86 1026.55 1685.67 1026.55H1563.35C1558.27 1026.55 1554.36 1022.08 1555.06 1017.06L1632.13 460.724C1632.64 456.974 1635.85 454.181 1639.65 454.181Z" fill="#FEFEFE"/>
<path fill-rule="evenodd" clip-rule="evenodd" d="M1735.52 789.511L1875.54 626.106C1879.95 620.96 1886.4 617.994 1893.2 617.994H2016.12C2024.99 617.994 2029.67 628.468 2023.73 635.029L1880.56 793.365L2011.44 1073.86C2016.24 1084.16 2008.7 1095.93 1997.31 1095.93H1886.21C1880.41 1095.93 1875.14 1092.56 1872.72 1087.31L1735.52 789.511Z" fill="#FEFEFE"/>
<path fill-rule="evenodd" clip-rule="evenodd" d="M1095.01 510.074C1084.99 552.186 1046.94 583.522 1007.1 583.522C967.26 583.522 936.707 549.384 946.733 507.281C956.75 465.169 989.734 431.031 1037.01 431.031C1076.84 431.031 1105.03 467.962 1095.01 510.074Z" fill="#FEFEFE"/>
<path fill-rule="evenodd" clip-rule="evenodd" d="M1220.94 1123.95C1210.93 1166.06 1172.87 1197.4 1133.03 1197.4C1093.19 1197.4 1062.64 1163.26 1072.66 1121.16C1082.68 1079.05 1115.67 1044.91 1162.94 1044.91C1202.78 1044.91 1230.96 1081.84 1220.94 1123.95Z" fill="#FEFEFE"/>
<path fill-rule="evenodd" clip-rule="evenodd" d="M1820.24 1627.19C1811.79 1668.8 1773.34 1699.76 1731.46 1699.74C1689.56 1699.72 1655.75 1665.96 1664.19 1624.36C1672.63 1582.74 1705.62 1549.02 1755.32 1549.05C1797.21 1549.07 1828.68 1585.58 1820.24 1627.19Z" fill="#FEFEFE"/>
<path fill-rule="evenodd" clip-rule="evenodd" d="M765.669 1419.93H690.66C687.875 1419.93 685.963 1417.14 686.984 1414.55L752.261 1249.43C753.507 1246.29 758.16 1246.96 758.463 1250.32L773.135 1411.79C773.532 1416.16 770.081 1419.93 765.669 1419.93ZM947.382 1627.29L863.679 1128.01C860.02 1106.18 841.058 1090.19 818.853 1090.19H734.865C709.25 1090.19 685.998 1105.1 675.392 1128.33L449.917 1627.91C446.647 1635.16 451.993 1643.34 459.96 1643.29L577.114 1642.61C585.133 1642.57 592.347 1637.78 595.479 1630.43L634.423 1539.13C635.479 1536.64 637.927 1535.03 640.643 1535.03H782.425C785.903 1535.03 788.818 1537.66 789.155 1541.1L797.615 1627.5C798.593 1637.55 807.079 1645.23 817.218 1645.23H932.131C941.69 1645.23 948.956 1636.67 947.382 1627.29Z" fill="#FEFEFE"/>
<path fill-rule="evenodd" clip-rule="evenodd" d="M891.497 1717.73L918.556 1801.03C923.417 1814.73 927.085 1817.78 936.592 1815.78C970.77 1808.6 1053.36 1784.28 1093.76 1729.8C1146.44 1658.79 1153.66 1533.23 1162.96 1469.42C1170.61 1416.86 1187.38 1287.48 1193.05 1243.51C1194.07 1235.6 1187.89 1228.6 1179.88 1228.6H1074.85C1065.57 1228.6 1057.73 1235.43 1056.48 1244.6C1048.01 1306.71 1017.51 1530.06 1012.18 1561.02C1005.99 1597.04 1004.75 1648.93 951.272 1679.91C924.585 1695.35 910.9 1698.3 900.338 1703.22C894.966 1705.72 888.893 1708.4 891.497 1717.73Z" fill="#FEFEFE"/>
<path fill-rule="evenodd" clip-rule="evenodd" d="M1469.49 1525.41C1469.49 1525.41 1414.72 1543.97 1388.43 1524.31C1362.13 1504.66 1359.94 1464.28 1375.28 1406.42C1390.62 1348.56 1428.96 1338.74 1445.39 1337.65C1461.82 1336.55 1492.71 1344.3 1492.71 1344.3L1469.49 1525.41ZM1621.14 1243.55C1585.72 1234.72 1526.18 1215.33 1430.46 1222.32C1342.15 1228.77 1242.43 1269.47 1223.75 1443.21C1205.07 1616.94 1284.77 1650.45 1399.33 1655.41C1483.28 1659.05 1549.17 1636.03 1578.4 1623.47C1588.57 1619.1 1595.65 1609.73 1597.14 1598.79L1639.47 1264.3C1641.13 1251.03 1634.47 1246.87 1621.14 1243.55Z" fill="#FEFEFE"/>
<path fill-rule="evenodd" clip-rule="evenodd" d="M1702.82 1493.66L1733.65 1173.36C1734.75 1161.89 1744.42 1157.21 1755.98 1157.21H1862.31C1872.21 1157.21 1876.41 1164.7 1873.67 1176.97L1808.78 1497.7C1807.46 1503.9 1801.98 1508.34 1795.61 1508.34H1716.21C1708.27 1508.34 1702.06 1501.53 1702.82 1493.66Z" fill="#FEFEFE"/>
<path fill-rule="evenodd" clip-rule="evenodd" d="M458.603 2084.29C479.659 2095.88 504.252 2099.25 527.66 2093.73C620.904 2071.71 827.254 2012.44 1263.75 1949.56C1812.14 1870.56 2217.04 1870.89 2217.04 1870.89L2218.1 1870.24C2218.1 1870.24 1859.23 1821.1 1270.24 1878.43C681.242 1935.76 352.505 2025.85 352.505 2025.85L458.603 2084.29Z" fill="#FEFEFE"/>
</svg>
