<svg width="367" height="219" viewBox="0 0 367 219" fill="none" xmlns="http://www.w3.org/2000/svg">
<g clip-path="url(#clip0_411_254)">
<path d="M280.984 216.524C276.285 212.561 273.431 206.301 274.18 200.207C274.928 194.112 279.564 188.51 285.577 187.216C291.59 185.922 298.445 189.504 300.271 195.367C301.277 184.064 302.435 172.287 308.456 162.661C313.908 153.945 323.35 147.708 333.584 146.592C343.818 145.476 354.593 149.69 360.975 157.753C367.358 165.815 368.921 177.535 364.45 186.792C361.157 193.61 355.091 198.685 348.734 202.813C328.194 216.041 303.559 221.42 279.361 217.961L280.984 216.524Z" fill="#C6CDC7"/>
<path d="M350.855 149.924C342.411 156.789 334.665 164.467 327.727 172.846C316.871 185.916 308.086 200.569 301.678 216.295C301.209 217.443 303.075 217.942 303.539 216.808C314.024 191.249 330.761 168.722 352.22 151.286C353.184 150.503 351.811 149.147 350.855 149.924Z" fill="white"/>
<path d="M118.143 215.447C124.597 210.004 128.517 201.406 127.489 193.035C126.461 184.665 120.094 176.97 111.834 175.193C103.575 173.415 94.1604 178.336 91.6518 186.388C90.2713 170.863 88.6804 154.687 80.4105 141.466C72.9224 129.495 59.9527 120.929 45.8966 119.396C31.8404 117.864 17.0411 123.652 8.27482 134.725C-0.491483 145.798 -2.63788 161.897 3.50182 174.61C8.02471 183.975 16.3575 190.945 25.0881 196.615C52.942 214.705 87.4946 222.25 120.372 217.421" fill="#C6CDC7"/>
<path d="M22.1747 123.972C33.7727 133.401 44.4127 143.947 53.9408 155.456C63.4703 166.954 71.8601 179.347 78.9921 192.462C82.9786 199.819 86.5598 207.387 89.7197 215.134C90.3639 216.709 87.8003 217.395 87.1632 215.837C81.5663 202.18 74.6419 189.104 66.4893 176.795C58.3763 164.531 49.0905 153.081 38.7623 142.607C32.9207 136.686 26.7573 131.089 20.3 125.843C18.9765 124.768 20.862 122.905 22.1747 123.972L22.1747 123.972Z" fill="white"/>
<path d="M263.438 218.521H109.467V60.8405C109.467 27.2929 136.812 0 170.423 0H202.483C236.094 0 263.438 27.2929 263.438 60.8405V218.521Z" fill="#C6CDC7"/>
<path d="M231.379 218.521H109.467V60.8406C109.434 47.9859 113.512 35.4561 121.108 25.0755C121.388 24.6945 121.668 24.3185 121.956 23.9466C125.63 19.1366 130.002 14.9006 134.929 11.3783C135.207 11.1762 135.487 10.9776 135.77 10.779C139.892 7.93165 144.352 5.60402 149.046 3.84906C149.325 3.74359 149.609 3.63792 149.893 3.53656C154.139 2.02421 158.54 0.98826 163.015 0.447833C163.293 0.410002 163.578 0.380399 163.863 0.350796C168.224 -0.114653 172.623 -0.114653 176.984 0.350796C177.268 0.380399 177.553 0.409998 177.834 0.448237C182.308 0.9887 186.708 2.02453 190.953 3.53658C191.237 3.63794 191.521 3.7436 191.801 3.84928C196.437 5.5821 200.844 7.875 204.922 10.6768C205.206 10.8711 205.489 11.0697 205.769 11.2683C208.53 13.2357 211.124 15.4275 213.524 17.8214C215.448 19.7415 217.241 21.7883 218.891 23.9479C219.178 24.3185 219.458 24.6946 219.737 25.0749C227.334 35.4556 231.412 47.9856 231.379 60.8406V218.521Z" fill="#F2AF25"/>
<path d="M221.465 147.996C225.193 147.996 228.215 144.98 228.215 141.26C228.215 137.539 225.193 134.523 221.465 134.523C217.738 134.523 214.716 137.539 214.716 141.26C214.716 144.98 217.738 147.996 221.465 147.996Z" fill="#F9A826"/>
<path d="M250.825 213.798H245.653L243.193 193.888L250.826 193.888L250.825 213.798Z" fill="#FFB8B8"/>
<path d="M241.959 212.323H251.933V218.591H235.679C235.679 217.768 235.842 216.953 236.157 216.192C236.473 215.432 236.936 214.741 237.519 214.159C238.102 213.577 238.794 213.115 239.556 212.8C240.318 212.485 241.135 212.323 241.959 212.323V212.323Z" fill="#2F2E41"/>
<path d="M276.557 213.798H271.386L268.925 193.888L276.558 193.888L276.557 213.798Z" fill="#FFB8B8"/>
<path d="M267.691 212.323H277.665V218.591H261.411C261.411 217.768 261.574 216.953 261.89 216.192C262.205 215.432 262.668 214.741 263.251 214.159C263.834 213.577 264.526 213.115 265.288 212.8C266.05 212.485 266.867 212.323 267.691 212.323V212.323Z" fill="#2F2E41"/>
<path d="M224.881 142.594C224.509 142.047 224.262 141.425 224.157 140.772C224.052 140.119 224.091 139.451 224.272 138.815C224.454 138.179 224.773 137.591 225.207 137.091C225.641 136.592 226.179 136.193 226.784 135.923L244.365 87.5598L253.015 92.2718L232.942 138.49C233.328 139.534 233.317 140.684 232.911 141.721C232.505 142.758 231.732 143.61 230.738 144.116C229.745 144.621 228.6 144.746 227.52 144.466C226.441 144.185 225.502 143.519 224.881 142.594V142.594Z" fill="#FFB8B8"/>
<path d="M273.915 151.682C273.341 151.353 272.845 150.902 272.464 150.361C272.082 149.821 271.825 149.203 271.708 148.552C271.592 147.901 271.62 147.233 271.79 146.594C271.961 145.955 272.27 145.361 272.695 144.854L267.249 93.6934L277.094 94.1423L279.357 144.465C280.163 145.235 280.658 146.273 280.748 147.383C280.839 148.492 280.518 149.596 279.848 150.486C279.177 151.375 278.202 151.989 277.109 152.209C276.016 152.429 274.879 152.242 273.915 151.682V151.682Z" fill="#FFB8B8"/>
<path d="M258.21 78.6016C263.932 78.6016 268.571 73.9717 268.571 68.2604C268.571 62.5491 263.932 57.9192 258.21 57.9192C252.488 57.9192 247.849 62.5491 247.849 68.2604C247.849 73.9717 252.488 78.6016 258.21 78.6016Z" fill="#FFB8B8"/>
<path d="M273.849 140.046H242.614L242.651 139.804C242.707 139.441 248.218 103.409 244.154 91.6214C243.746 90.463 243.782 89.1949 244.254 88.0613C244.727 86.9277 245.603 86.0087 246.714 85.4811H246.714C252.523 82.7505 263.675 79.3881 273.087 87.5481C274.472 88.7686 275.554 90.294 276.247 92.0037C276.939 93.7134 277.224 95.5604 277.078 97.3988L273.849 140.046Z" fill="#DC2727"/>
<path d="M248.613 108.734L234.55 105.887L241.142 90.2954C241.536 88.7854 242.515 87.4931 243.863 86.7021C245.21 85.9111 246.817 85.6859 248.331 86.076C249.845 86.4661 251.142 87.4396 251.938 88.7829C252.734 90.1262 252.963 91.7297 252.576 93.2417L248.613 108.734Z" fill="#DC2727"/>
<path d="M266.624 114.022L265.778 94.6784C265.137 91.0422 267.223 87.6047 270.43 87.0429C273.638 86.4831 276.771 89.005 277.415 92.6679L280.593 110.742L266.624 114.022Z" fill="#DC2727"/>
<path d="M272.81 137.73C277.836 156.836 278.384 181.127 277.029 207.623L270.279 206.781L258.046 156.256L251.296 207.623L243.703 207.202C241.435 179.401 239.226 155.534 242.86 139.836L272.81 137.73Z" fill="#2F2E41"/>
<path d="M265.037 76.2524C263.104 78.3074 259.515 77.2043 259.263 74.3968C259.243 74.1789 259.244 73.9595 259.267 73.7418C259.397 72.4982 260.117 71.3692 259.944 70.0562C259.905 69.7294 259.783 69.418 259.59 69.1514C258.05 67.0928 254.434 70.0722 252.98 68.2086C252.089 67.0659 253.137 65.2667 252.453 63.9895C251.55 62.3038 248.876 63.1354 247.199 62.2122C245.334 61.1851 245.445 58.328 246.673 56.5902C248.171 54.4708 250.797 53.34 253.391 53.177C255.984 53.014 258.559 53.7137 260.98 54.6554C263.731 55.7254 266.459 57.2042 268.152 59.6185C270.211 62.5545 270.409 66.5016 269.379 69.9347C268.753 72.0231 266.615 74.5743 265.037 76.2524Z" fill="#2F2E41"/>
<path d="M354.337 218.791H42.8958C42.7629 218.791 42.6355 218.738 42.5416 218.644C42.4477 218.55 42.395 218.423 42.395 218.29C42.395 218.157 42.4477 218.03 42.5416 217.936C42.6355 217.842 42.7629 217.789 42.8958 217.789H354.337C354.47 217.789 354.597 217.842 354.691 217.936C354.785 218.03 354.838 218.157 354.838 218.29C354.838 218.423 354.785 218.55 354.691 218.644C354.597 218.738 354.47 218.791 354.337 218.791V218.791Z" fill="#3F3D56"/>
<path d="M197.843 172.838H143.003C142.281 172.842 141.587 172.559 141.073 172.053C140.559 171.547 140.267 170.857 140.261 170.137V47.9631C140.267 47.2423 140.559 46.5531 141.073 46.0467C141.587 45.5403 142.281 45.2581 143.003 45.262H197.843C198.565 45.2581 199.259 45.5403 199.773 46.0467C200.287 46.5531 200.579 47.2423 200.584 47.9631V170.137C200.579 170.857 200.287 171.547 199.773 172.053C199.259 172.559 198.565 172.842 197.843 172.838V172.838Z" fill="white"/>
<path d="M200.584 84.7935H140.261V85.6355H200.584V84.7935Z" fill="#CCCCCC"/>
<path d="M200.795 132.839H140.472V133.681H200.795V132.839Z" fill="#CCCCCC"/>
<path d="M160.088 45.262H159.244V173.259H160.088V45.262Z" fill="#CCCCCC"/>
<path d="M181.18 45.262H180.336V173.259H181.18V45.262Z" fill="#CCCCCC"/>
</g>
<defs>
<clipPath id="clip0_411_254">
<rect width="367" height="219" fill="white"/>
</clipPath>
</defs>
</svg>
