<svg width="2500" height="784" viewBox="0 0 2500 784" fill="none" xmlns="http://www.w3.org/2000/svg">
<path d="M2.93356 538.751C2.93356 499.809 2.30168 467.208 0.348633 438.04H68.7342L71.9797 488.086H73.8753C89.3561 461.671 117.733 430.369 170.638 430.369C211.939 430.369 244.164 455.423 257.721 492.911H259.042C270.013 474.167 282.881 460.248 297.701 450.567C315.135 437.329 335.182 430.369 360.945 430.369C413.218 430.369 466.065 468.569 466.065 577.012V776.329H388.661V589.446C388.661 533.214 370.596 499.809 332.54 499.809C305.456 499.809 285.437 520.718 277.079 545.03C274.753 554.307 273.452 563.849 273.201 573.455V776.36H195.797V580.383C195.797 533.245 178.392 499.84 141.6 499.84C111.989 499.84 91.9985 524.894 84.8181 548.463C81.63 556.814 80.3089 566.588 80.3089 576.239V776.36H2.93356V538.751V538.751ZM767.668 695.105C767.668 725.634 768.961 755.482 772.149 776.36H700.546L695.405 738.872H693.452C674.094 765.287 641.179 783.969 600.625 783.969C537.38 783.969 501.91 734.696 501.91 683.259C501.91 597.735 572.162 554.742 688.34 555.422V549.886C688.34 527.616 679.924 490.808 624.435 490.808C593.444 490.808 561.219 501.263 539.937 515.8L524.456 460.218C547.691 444.907 588.332 430.339 637.963 430.339C738.631 430.339 767.697 499.19 767.697 572.743L767.668 695.105ZM690.235 611.067C634.085 609.644 580.577 622.851 580.577 674.258C580.577 707.601 600.625 722.912 625.756 722.912C657.321 722.912 680.585 700.611 687.679 676.33C689.416 670.259 690.288 663.939 690.264 657.586V611.067H690.235V611.067ZM822.468 538.751C822.468 499.809 821.808 467.208 819.941 438.04H889.533L893.382 488.828H895.335C908.862 462.383 943.069 430.369 995.314 430.369C1050.17 430.369 1106.9 468.569 1106.9 575.62V776.329H1027.57V585.332C1027.57 536.709 1010.77 499.778 967.569 499.778C936.004 499.778 914.003 524.12 905.645 549.855C903.061 557.464 902.429 567.918 902.429 577.569V776.298H822.44L822.468 538.751V538.751ZM1450.92 302.131V681.186C1450.92 715.921 1452.24 753.502 1453.51 776.36H1382.59L1379.35 722.912H1378.03C1359.36 760.4 1321.24 784 1275.49 784C1200.64 784 1141.33 715.241 1141.33 611.097C1140.64 497.829 1206.42 430.4 1281.95 430.4C1325.15 430.4 1356.11 449.856 1370.3 474.972H1371.65V302.162H1450.95V302.131H1450.92ZM1371.62 579.053C1371.62 572.156 1370.99 563.804 1369.67 556.814C1362.57 523.533 1337.47 496.406 1301.31 496.406C1250.36 496.406 1221.92 545.06 1221.92 608.252C1221.92 670.02 1250.33 715.21 1300.68 715.21C1332.88 715.21 1361.28 691.548 1369.01 654.741C1370.96 647.132 1371.65 638.749 1371.65 629.749V579.053H1371.62ZM1507.04 776.36V438.04H1587.09V776.36H1507.04ZM1643.15 547.133C1643.15 501.294 1642.55 468.6 1640.62 438.071H1709.64L1712.17 502.624H1714.78C1730.26 454.712 1767 438.071 1800.63 438.071C1808.36 438.071 1812.84 436.648 1819.27 438.071V513.14C1811.66 511.326 1803.89 510.393 1796.09 510.356C1757.95 510.356 1732.16 536.771 1725.09 574.909C1723.53 583.638 1722.68 592.497 1722.54 601.385V776.391H1643.15V547.133V547.133ZM1856.09 776.36V438.04H1936.02V776.36H1856.09Z" fill="#0D2B5B"/>
<path d="M2433.94 80.2343C2394.33 31.5803 2352.22 53.603 2318.76 71.5118C2304.69 78.9971 2203.1 141.013 2203.1 141.013C2147.44 165.727 2104.1 138.755 2087.1 116.052C2085.47 113.899 2084 111.614 2082.7 109.216L2078.74 101.824C2072.04 89.3465 2064.6 77.351 2056.45 65.9134C2051.51 58.9807 2046.16 52.3993 2040.43 46.2105C2002.34 4.79437 1941.48 -24.1877 1839.75 28.4563C1791.58 58.521 1634.68 155.056 1634.68 155.056C1575.71 181.192 1530.62 149.364 1515.97 126.012C1515.31 125.137 1514.74 124.194 1514.25 123.197L1512.33 119.671L1502.39 102.164C1497.9 94.4953 1493.09 87.0537 1487.97 79.8631C1482.98 72.9746 1477.62 66.4061 1471.92 60.1912C1434.09 19.0225 1373.54 -9.89771 1272.7 41.7565C1211.73 79.2445 1069.9 166.562 1069.9 166.562L1069.85 166.624L966.046 230.496L1019.76 301.512C1042.36 324.71 1084.84 362.755 1150.55 330.68C1150.55 330.68 1331.93 217.567 1332.65 217.226C1487.71 125.579 1564.23 213.143 1598.06 271.51C1599.24 273.335 1600.19 275.314 1601.25 277.077L1601.31 277.17C1601.74 277.881 1601.99 278.531 1602.37 279.211L1606.19 285.954C1622.67 312.864 1648.67 330.247 1679.66 329.443C1696.75 329.072 1708.35 323.071 1725.24 312.957L1900.73 203.338L1901.1 203.153C2058.12 110.392 2135.92 203.679 2169.16 262.045C2171.74 267.087 2174.67 271.912 2177.69 276.397C2194.14 300.43 2216.83 316.174 2245.67 315.4C2264.71 314.998 2286.05 302.688 2289.24 300.43L2499.62 169.655C2499.68 169.717 2478.2 134.734 2433.94 80.2343V80.2343Z" fill="#FDD213"/>
</svg>
