<svg width="2500" height="588" viewBox="0 0 2500 588" fill="none" xmlns="http://www.w3.org/2000/svg">
<path fill-rule="evenodd" clip-rule="evenodd" d="M961.775 16.6047H1192.04L1192.17 108.912L1135.49 108.811L1269.87 427.434L1402.02 109.115H1343.72V16.8744L1527.97 16.7733L1527.7 69.3711L1305.97 587.252C1252.46 587.387 1217.65 567.988 1198.99 527.401L1016.36 109.115L961.741 109.013L961.775 16.6047V16.6047ZM645.074 0.4104C805.196 0.4104 934.987 131.112 934.987 292.313C934.987 453.514 805.196 584.182 645.074 584.182C484.953 584.182 355.162 453.514 355.162 292.313C355.162 131.112 484.953 0.4104 645.074 0.4104V0.4104ZM644.197 95.9232C745.176 95.9232 827.025 184.823 827.025 294.472C827.025 404.155 745.176 493.022 644.197 493.022C543.185 493.022 461.336 404.155 461.336 294.472C461.336 184.823 543.185 95.9232 644.197 95.9232V95.9232ZM1854.93 0.4104C2015.05 0.4104 2144.84 131.112 2144.84 292.313C2144.84 453.514 2015.05 584.182 1854.93 584.182C1694.8 584.182 1565.01 453.514 1565.01 292.313C1565.01 131.112 1694.8 0.4104 1854.93 0.4104V0.4104ZM1854.05 95.9232C1955.03 95.9232 2036.88 184.823 2036.88 294.472C2036.88 404.155 1955.03 493.022 1854.05 493.022C1753.04 493.022 1671.19 404.155 1671.19 294.472C1671.19 184.823 1753.04 95.9232 1854.05 95.9232V95.9232Z" fill="#4C3494"/>
</svg>
