<svg width="2500" height="2500" viewBox="0 0 2500 2500" fill="none" xmlns="http://www.w3.org/2000/svg">
<path fill-rule="evenodd" clip-rule="evenodd" d="M195.833 901.667H948.333C998.333 901.667 1039.17 942.5 1039.17 992.5V1519.17C1039.17 1569.17 998.333 1610 948.333 1610H174.167C124.167 1610 83.3335 1569.17 83.3335 1519.17V868.333C83.3335 845 102.5 828.333 126.667 825.833L820 736.667C843.333 736.667 863.333 756.667 863.333 780V853.333H152.5C152.5 884.167 161.667 901.667 195.833 901.667ZM618.333 1478.33C555 1490 473.333 1469.17 429.167 1421.67C409.167 1400 441.667 1367.5 461.667 1389.17C490.833 1421.67 544.167 1436.67 587.5 1435.83C642.5 1434.17 691.667 1384.17 660.833 1328.33C617.5 1250.83 510 1272.5 455 1211.67C410.833 1161.67 431.667 1085 484.167 1050C538.333 1014.17 632.5 1015.83 677.5 1067.5C696.667 1089.17 664.167 1121.67 645 1099.17C608.333 1058.33 523.333 1063.33 490.833 1106.67C444.167 1167.5 514.167 1200 562.5 1215C629.167 1235 702.5 1271.67 715 1348.33C725 1410 676.667 1466.67 618.333 1478.33Z" fill="#EE4E2C"/>
<path fill-rule="evenodd" clip-rule="evenodd" d="M618.333 1478.33C555 1490.83 473.333 1469.17 429.167 1421.67C409.167 1400 441.667 1367.5 461.667 1389.17C490.833 1421.67 544.167 1436.67 587.5 1435.83C642.5 1434.17 691.667 1384.17 660.833 1328.33C617.5 1250.83 510 1272.5 455 1211.67C410.833 1161.67 431.667 1085 484.167 1050C538.333 1014.17 632.5 1015.83 677.5 1067.5C696.667 1089.17 664.167 1121.67 645 1099.17C608.333 1058.33 523.333 1063.33 490.833 1106.67C444.167 1167.5 514.167 1200 562.5 1215C629.167 1235 702.5 1271.67 715 1348.33C725 1410 676.667 1466.67 618.333 1478.33Z" fill="#FEFEFE"/>
<path d="M1913.33 869.167C1886.67 869.167 1862.5 880.833 1845.83 898.333V877.5C1845.83 858.333 1815.83 858.333 1815.83 877.5V1125.83C1815.83 1145 1845.83 1145 1845.83 1125.83V1015.83C1862.5 1033.33 1886.67 1045 1913.33 1045C1963.33 1045 2004.17 1005.83 2004.17 956.667C2004.17 908.333 1963.33 869.167 1913.33 869.167ZM1913.33 1013.33C1881.67 1013.33 1855.83 988.333 1855.83 956.667C1855.83 929.167 1876.67 905.833 1904.17 901.667H1905C1907.5 900.833 1910.83 900.833 1913.33 900.833C1937.5 900.833 1957.5 915 1966.67 934.167V935C1970 941.667 1971.67 949.167 1971.67 956.667C1971.67 988.333 1945.83 1013.33 1913.33 1013.33ZM1689.17 1045C1639.17 1045 1598.33 1005.83 1598.33 956.667C1598.33 908.333 1639.17 869.167 1689.17 869.167C1738.33 869.167 1779.17 908.333 1779.17 956.667C1779.17 1005.83 1738.33 1045 1689.17 1045ZM1689.17 900.833C1656.67 900.833 1630.83 925.833 1630.83 956.667C1630.83 988.333 1656.67 1013.33 1689.17 1013.33C1720.83 1013.33 1746.67 988.333 1746.67 956.667C1746.67 925.833 1720.83 900.833 1689.17 900.833ZM2416.67 955C2415.83 915 2395 878.333 2350.83 870C2312.5 863.333 2268.33 882.5 2251.67 917.5C2235 953.333 2241.67 1002.5 2275 1027.5C2310.83 1054.17 2367.5 1045.83 2404.17 1025.83C2420.83 1016.67 2405.83 991.667 2388.33 1000.83C2365 1013.33 2335 1020 2308.33 1010.83C2289.17 1005 2278.33 988.333 2275 970H2401.67C2409.17 970 2416.67 963.333 2416.67 955ZM2275.83 940.833C2275.83 939.167 2276.67 938.333 2276.67 937.5C2284.17 913.333 2309.17 899.167 2334.17 898.333C2363.33 897.5 2379.17 917.5 2384.17 940.833H2275.83ZM2214.17 955.833C2213.33 915 2191.67 878.333 2147.5 870.833C2109.17 863.333 2065 883.333 2049.17 917.5C2031.67 953.333 2039.17 1002.5 2072.5 1027.5C2108.33 1055 2164.17 1046.67 2200.83 1026.67C2218.33 1017.5 2202.5 991.667 2185.83 1000.83C2162.5 1013.33 2131.67 1020 2105.83 1011.67C2085.83 1005 2075 988.333 2071.67 970H2198.33C2206.67 970 2214.17 963.333 2214.17 955.833ZM2073.33 940.833C2073.33 940 2073.33 938.333 2074.17 937.5C2080.83 913.333 2105.83 899.167 2131.67 899.167C2160 898.333 2176.67 917.5 2181.67 940.833H2073.33ZM1562.5 927.5V1030C1562.5 1049.17 1531.67 1049.17 1531.67 1030V929.167C1530.83 909.167 1514.17 900 1513.33 900C1491.67 890 1452.5 895 1429.17 924.167V1030C1429.17 1049.17 1398.33 1049.17 1398.33 1030V765.833C1398.33 746.667 1429.17 746.667 1429.17 765.833V884.167C1465.83 859.167 1513.33 862.5 1535.83 877.5C1535.83 877.5 1563.33 892.5 1562.5 927.5ZM1348.33 778.333C1318.33 745 1255.83 744.167 1219.17 767.5C1185 789.167 1170.83 839.167 1200 870.833C1236.67 910 1308.33 895.833 1337.5 945.833C1358.33 981.667 1325 1014.17 1288.33 1015C1260 1015 1224.17 1005.83 1204.17 985C1190.83 971.667 1169.17 991.667 1182.5 1005.83C1212.5 1036.67 1266.67 1050 1309.17 1042.5C1348.33 1035 1380 998.333 1373.33 958.333C1365.83 909.167 1315.83 885.833 1271.67 872.5C1239.17 863.333 1193.33 842.5 1224.17 803.333C1245.83 775.833 1302.5 772.5 1326.67 799.167C1340 813.333 1360.83 792.5 1348.33 778.333Z" fill="#EE4E2C"/>
<path fill-rule="evenodd" clip-rule="evenodd" d="M2143.33 1763.33H2045.83L2150 1567.5L1980 1245.83H2085L2202.5 1468.33L2320 1245.83H2416.67L2143.33 1763.33ZM1178.33 1610H1260V1461.67H1369.17C1482.5 1461.67 1574.17 1381.67 1574.17 1284.17C1574.17 1185.83 1482.5 1105.83 1369.17 1105.83H1178.33C1178.33 1274.17 1178.33 1441.67 1178.33 1610ZM1260 1380V1187.5H1369.17C1430.83 1187.5 1480.83 1230 1480.83 1283.33C1480.83 1336.67 1430.83 1380 1369.17 1380H1260ZM1878.33 1249.17H1950V1606.67H1878.33V1566.67C1846.67 1593.33 1805.83 1610 1760.83 1610C1660 1610 1578.33 1528.33 1578.33 1427.5C1578.33 1327.5 1660 1245.83 1760.83 1245.83C1805.83 1245.83 1846.67 1262.5 1878.33 1289.17V1249.17ZM1760.83 1322.5C1818.33 1322.5 1865.83 1370 1865.83 1427.5C1865.83 1485.83 1818.33 1533.33 1760.83 1533.33C1702.5 1533.33 1655 1485.83 1655 1427.5C1655 1370 1702.5 1322.5 1760.83 1322.5Z" fill="#EE4E2C"/>
</svg>
